solid OpenSCAD_Model
  facet normal -0.994522 0.104527 0
    outer loop
      vertex -7.3 0 -2.5
      vertex -7.14048 1.51775 2.5
      vertex -7.14048 1.51775 -2.5
    endloop
  endfacet
  facet normal -0.994522 0.104527 0
    outer loop
      vertex -7.14048 1.51775 2.5
      vertex -7.3 0 -2.5
      vertex -7.3 0 2.5
    endloop
  endfacet
  facet normal 0 1 -0
    outer loop
      vertex 0.763058 7.26001 -2.5
      vertex -0.763058 7.26001 2.5
      vertex 0.763058 7.26001 2.5
    endloop
  endfacet
  facet normal 0 1 0
    outer loop
      vertex -0.763058 7.26001 2.5
      vertex 0.763058 7.26001 -2.5
      vertex -0.763058 7.26001 -2.5
    endloop
  endfacet
  facet normal 0 -1 0
    outer loop
      vertex -0.763058 -7.26001 -2.5
      vertex 0.763058 -7.26001 2.5
      vertex -0.763058 -7.26001 2.5
    endloop
  endfacet
  facet normal 0 -1 -0
    outer loop
      vertex 0.763058 -7.26001 2.5
      vertex -0.763058 -7.26001 -2.5
      vertex 0.763058 -7.26001 -2.5
    endloop
  endfacet
  facet normal 0.587789 0.809014 -0
    outer loop
      vertex 4.81577 5.475 -2.5
      vertex 3.65 6.32199 2.5
      vertex 4.81577 5.475 2.5
    endloop
  endfacet
  facet normal 0.587789 0.809014 0
    outer loop
      vertex 3.65 6.32199 2.5
      vertex 4.81577 5.475 -2.5
      vertex 3.65 6.32199 -2.5
    endloop
  endfacet
  facet normal -0.743147 0.669129 0
    outer loop
      vertex -5.90582 4.29083 -2.5
      vertex -4.88465 5.42496 2.5
      vertex -4.88465 5.42496 -2.5
    endloop
  endfacet
  facet normal -0.743147 0.669129 0
    outer loop
      vertex -4.88465 5.42496 2.5
      vertex -5.90582 4.29083 -2.5
      vertex -5.90582 4.29083 2.5
    endloop
  endfacet
  facet normal -0.866024 0.500002 0
    outer loop
      vertex -6.66888 2.96918 -2.5
      vertex -5.90582 4.29083 2.5
      vertex -5.90582 4.29083 -2.5
    endloop
  endfacet
  facet normal -0.866024 0.500002 0
    outer loop
      vertex -5.90582 4.29083 2.5
      vertex -6.66888 2.96918 -2.5
      vertex -6.66888 2.96918 2.5
    endloop
  endfacet
  facet normal -0.406732 0.913548 0
    outer loop
      vertex -2.25582 6.94271 -2.5
      vertex -3.65 6.32199 2.5
      vertex -2.25582 6.94271 2.5
    endloop
  endfacet
  facet normal -0.406732 0.913548 0
    outer loop
      vertex -3.65 6.32199 2.5
      vertex -2.25582 6.94271 -2.5
      vertex -3.65 6.32199 -2.5
    endloop
  endfacet
  facet normal 0.207914 0.978147 -0
    outer loop
      vertex 2.25582 6.94271 -2.5
      vertex 0.763058 7.26001 2.5
      vertex 2.25582 6.94271 2.5
    endloop
  endfacet
  facet normal 0.207914 0.978147 0
    outer loop
      vertex 0.763058 7.26001 2.5
      vertex 2.25582 6.94271 -2.5
      vertex 0.763058 7.26001 -2.5
    endloop
  endfacet
  facet normal 0.406732 0.913548 -0
    outer loop
      vertex 3.65 6.32199 -2.5
      vertex 2.25582 6.94271 2.5
      vertex 3.65 6.32199 2.5
    endloop
  endfacet
  facet normal 0.406732 0.913548 0
    outer loop
      vertex 2.25582 6.94271 2.5
      vertex 3.65 6.32199 -2.5
      vertex 2.25582 6.94271 -2.5
    endloop
  endfacet
  facet normal -0.951056 0.309018 0
    outer loop
      vertex -7.14048 1.51775 -2.5
      vertex -6.66888 2.96918 2.5
      vertex -6.66888 2.96918 -2.5
    endloop
  endfacet
  facet normal -0.951056 0.309018 0
    outer loop
      vertex -6.66888 2.96918 2.5
      vertex -7.14048 1.51775 -2.5
      vertex -7.14048 1.51775 2.5
    endloop
  endfacet
  facet normal 0 0 1
    outer loop
      vertex 7.51667 -3.475 2.5
      vertex 2.64928 -1.17954 2.5
      vertex 4.81577 -5.475 2.5
    endloop
  endfacet
  facet normal -0 0 1
    outer loop
      vertex 2.34615 -1.70458 2.5
      vertex 4.81577 -5.475 2.5
      vertex 2.64928 -1.17954 2.5
    endloop
  endfacet
  facet normal -0 0 1
    outer loop
      vertex 1.94048 -2.15512 2.5
      vertex 4.81577 -5.475 2.5
      vertex 2.34615 -1.70458 2.5
    endloop
  endfacet
  facet normal -0 0 1
    outer loop
      vertex 1.45 -2.51147 2.5
      vertex 4.81577 -5.475 2.5
      vertex 1.94048 -2.15512 2.5
    endloop
  endfacet
  facet normal 0 0 1
    outer loop
      vertex 4.81577 -5.475 2.5
      vertex 1.45 -2.51147 2.5
      vertex 3.65 -6.32199 2.5
    endloop
  endfacet
  facet normal 0 0 1
    outer loop
      vertex 3.65 -6.32199 2.5
      vertex 1.45 -2.51147 2.5
      vertex 2.25582 -6.94271 2.5
    endloop
  endfacet
  facet normal -0 0 1
    outer loop
      vertex 0.896149 -2.75806 2.5
      vertex 2.25582 -6.94271 2.5
      vertex 1.45 -2.51147 2.5
    endloop
  endfacet
  facet normal 0 0 1
    outer loop
      vertex 0.896149 -2.75806 2.5
      vertex 0.763058 -7.26001 2.5
      vertex 2.25582 -6.94271 2.5
    endloop
  endfacet
  facet normal -0 0 1
    outer loop
      vertex 0.303132 -2.88411 2.5
      vertex 0.763058 -7.26001 2.5
      vertex 0.896149 -2.75806 2.5
    endloop
  endfacet
  facet normal -0 0 1
    outer loop
      vertex -0.303132 -2.88411 2.5
      vertex 0.763058 -7.26001 2.5
      vertex 0.303132 -2.88411 2.5
    endloop
  endfacet
  facet normal 0 0 1
    outer loop
      vertex -0.303132 -2.88411 2.5
      vertex -0.763058 -7.26001 2.5
      vertex 0.763058 -7.26001 2.5
    endloop
  endfacet
  facet normal 0 0 1
    outer loop
      vertex -0.896149 -2.75806 2.5
      vertex -0.763058 -7.26001 2.5
      vertex -0.303132 -2.88411 2.5
    endloop
  endfacet
  facet normal 0 0 1
    outer loop
      vertex -2.25582 -6.94271 2.5
      vertex -0.896149 -2.75806 2.5
      vertex -1.45 -2.51147 2.5
    endloop
  endfacet
  facet normal 0 0 1
    outer loop
      vertex -3.65 -6.32199 2.5
      vertex -1.45 -2.51147 2.5
      vertex -1.94048 -2.15512 2.5
    endloop
  endfacet
  facet normal 0 0 1
    outer loop
      vertex -0.896149 -2.75806 2.5
      vertex -2.25582 -6.94271 2.5
      vertex -0.763058 -7.26001 2.5
    endloop
  endfacet
  facet normal 0 0 1
    outer loop
      vertex -4.88465 -5.42496 2.5
      vertex -1.94048 -2.15512 2.5
      vertex -2.34615 -1.70458 2.5
    endloop
  endfacet
  facet normal 0 0 1
    outer loop
      vertex -5.90582 -4.29083 2.5
      vertex -2.34615 -1.70458 2.5
      vertex -2.64928 -1.17954 2.5
    endloop
  endfacet
  facet normal 0 0 1
    outer loop
      vertex -6.66888 -2.96918 2.5
      vertex -2.64928 -1.17954 2.5
      vertex -2.83663 -0.602943 2.5
    endloop
  endfacet
  facet normal 0 0 1
    outer loop
      vertex -7.14048 -1.51775 2.5
      vertex -2.83663 -0.602943 2.5
      vertex -2.9 0 2.5
    endloop
  endfacet
  facet normal -0 0 1
    outer loop
      vertex -6.66888 2.96918 2.5
      vertex -2.64928 1.17954 2.5
      vertex -5.90582 4.29083 2.5
    endloop
  endfacet
  facet normal 0 0 1
    outer loop
      vertex -1.45 -2.51147 2.5
      vertex -3.65 -6.32199 2.5
      vertex -2.25582 -6.94271 2.5
    endloop
  endfacet
  facet normal 0 0 1
    outer loop
      vertex -2.64928 1.17954 2.5
      vertex -6.66888 2.96918 2.5
      vertex -2.83663 0.602943 2.5
    endloop
  endfacet
  facet normal 0 0 1
    outer loop
      vertex -1.94048 -2.15512 2.5
      vertex -4.88465 -5.42496 2.5
      vertex -3.65 -6.32199 2.5
    endloop
  endfacet
  facet normal -0 0 1
    outer loop
      vertex -7.14048 1.51775 2.5
      vertex -2.83663 0.602943 2.5
      vertex -6.66888 2.96918 2.5
    endloop
  endfacet
  facet normal 0 0 1
    outer loop
      vertex -2.34615 -1.70458 2.5
      vertex -5.90582 -4.29083 2.5
      vertex -4.88465 -5.42496 2.5
    endloop
  endfacet
  facet normal 0 0 1
    outer loop
      vertex -2.83663 0.602943 2.5
      vertex -7.14048 1.51775 2.5
      vertex -2.9 0 2.5
    endloop
  endfacet
  facet normal 0 0 1
    outer loop
      vertex -2.64928 -1.17954 2.5
      vertex -6.66888 -2.96918 2.5
      vertex -5.90582 -4.29083 2.5
    endloop
  endfacet
  facet normal 0 0 1
    outer loop
      vertex -7.3 0 2.5
      vertex -2.9 0 2.5
      vertex -7.14048 1.51775 2.5
    endloop
  endfacet
  facet normal 0 0 1
    outer loop
      vertex -2.83663 -0.602943 2.5
      vertex -7.14048 -1.51775 2.5
      vertex -6.66888 -2.96918 2.5
    endloop
  endfacet
  facet normal 0 0 1
    outer loop
      vertex -2.9 0 2.5
      vertex -7.3 0 2.5
      vertex -7.14048 -1.51775 2.5
    endloop
  endfacet
  facet normal 0 0 1
    outer loop
      vertex 5.93016 0.683332 2.5
      vertex 7.51667 5.475 2.5
      vertex 5.93016 4.18333 2.5
    endloop
  endfacet
  facet normal -0 0 1
    outer loop
      vertex 4.81577 5.475 2.5
      vertex 5.93016 4.18333 2.5
      vertex 7.51667 5.475 2.5
    endloop
  endfacet
  facet normal 0 0 1
    outer loop
      vertex 4.81577 5.475 2.5
      vertex 3.94927 4.18333 2.5
      vertex 5.93016 4.18333 2.5
    endloop
  endfacet
  facet normal 0 0 1
    outer loop
      vertex 2.25582 6.94271 2.5
      vertex 3.94927 4.18333 2.5
      vertex 3.65 6.32199 2.5
    endloop
  endfacet
  facet normal 0 0 1
    outer loop
      vertex 3.65 6.32199 2.5
      vertex 3.94927 4.18333 2.5
      vertex 4.81577 5.475 2.5
    endloop
  endfacet
  facet normal -0 0 1
    outer loop
      vertex 8.51667 -1.5 2.5
      vertex 9.51667 -2.5 2.5
      vertex 9.51667 -1.5 2.5
    endloop
  endfacet
  facet normal 0 0 1
    outer loop
      vertex 9.51667 -2.5 2.5
      vertex 8.51667 -1.5 2.5
      vertex 8.51667 -2.5 2.5
    endloop
  endfacet
  facet normal -0 0 1
    outer loop
      vertex 8.51667 0.5 2.5
      vertex 9.51667 -0.5 2.5
      vertex 9.51667 0.5 2.5
    endloop
  endfacet
  facet normal 0 0 1
    outer loop
      vertex 9.51667 -0.5 2.5
      vertex 8.51667 0.5 2.5
      vertex 8.51667 -0.5 2.5
    endloop
  endfacet
  facet normal -0 0 1
    outer loop
      vertex 8.51667 2.5 2.5
      vertex 9.51667 1.5 2.5
      vertex 9.51667 2.5 2.5
    endloop
  endfacet
  facet normal 0 0 1
    outer loop
      vertex 9.51667 1.5 2.5
      vertex 8.51667 2.5 2.5
      vertex 8.51667 1.5 2.5
    endloop
  endfacet
  facet normal -0 0 1
    outer loop
      vertex 8.51667 4.5 2.5
      vertex 9.51667 3.5 2.5
      vertex 9.51667 4.5 2.5
    endloop
  endfacet
  facet normal 0 0 1
    outer loop
      vertex 9.51667 3.5 2.5
      vertex 8.51667 4.5 2.5
      vertex 8.51667 3.5 2.5
    endloop
  endfacet
  facet normal 0 0 1
    outer loop
      vertex 9.51667 4.5 2.5
      vertex 10.95 5.475 2.5
      vertex 9.51667 5.475 2.5
    endloop
  endfacet
  facet normal 0 0 1
    outer loop
      vertex 9.51667 3.5 2.5
      vertex 10.95 5.475 2.5
      vertex 9.51667 4.5 2.5
    endloop
  endfacet
  facet normal 0 0 1
    outer loop
      vertex 9.51667 2.5 2.5
      vertex 10.95 5.475 2.5
      vertex 9.51667 3.5 2.5
    endloop
  endfacet
  facet normal 0 0 1
    outer loop
      vertex 9.51667 1.5 2.5
      vertex 10.95 5.475 2.5
      vertex 9.51667 2.5 2.5
    endloop
  endfacet
  facet normal 0 0 1
    outer loop
      vertex 9.51667 0.5 2.5
      vertex 10.95 5.475 2.5
      vertex 9.51667 1.5 2.5
    endloop
  endfacet
  facet normal 0 0 1
    outer loop
      vertex 10.95 5.475 2.5
      vertex 9.51667 0.5 2.5
      vertex 10.95 -5.475 2.5
    endloop
  endfacet
  facet normal -0 0 1
    outer loop
      vertex 9.51667 -0.5 2.5
      vertex 10.95 -5.475 2.5
      vertex 9.51667 0.5 2.5
    endloop
  endfacet
  facet normal -0 0 1
    outer loop
      vertex 9.51667 -1.5 2.5
      vertex 10.95 -5.475 2.5
      vertex 9.51667 -0.5 2.5
    endloop
  endfacet
  facet normal -0 0 1
    outer loop
      vertex 9.51667 -2.5 2.5
      vertex 10.95 -5.475 2.5
      vertex 9.51667 -1.5 2.5
    endloop
  endfacet
  facet normal -0 0 1
    outer loop
      vertex 9.51667 -3.475 2.5
      vertex 10.95 -5.475 2.5
      vertex 9.51667 -2.5 2.5
    endloop
  endfacet
  facet normal -0 0 1
    outer loop
      vertex 7.51667 -3.475 2.5
      vertex 10.95 -5.475 2.5
      vertex 9.51667 -3.475 2.5
    endloop
  endfacet
  facet normal 0 0 1
    outer loop
      vertex 7.51667 5.475 2.5
      vertex 5.93016 0.683332 2.5
      vertex 7.51667 -3.475 2.5
    endloop
  endfacet
  facet normal 0 0 1
    outer loop
      vertex 7.51667 -3.475 2.5
      vertex 4.81577 -5.475 2.5
      vertex 10.95 -5.475 2.5
    endloop
  endfacet
  facet normal -0 0 1
    outer loop
      vertex 3.94927 0.683332 2.5
      vertex 2.83663 -0.602943 2.5
      vertex 5.93016 0.683332 2.5
    endloop
  endfacet
  facet normal 0 0 1
    outer loop
      vertex 2.83663 -0.602943 2.5
      vertex 3.94927 0.683332 2.5
      vertex 2.9 0 2.5
    endloop
  endfacet
  facet normal 0 0 1
    outer loop
      vertex 2.64928 -1.17954 2.5
      vertex 5.93016 0.683332 2.5
      vertex 2.83663 -0.602943 2.5
    endloop
  endfacet
  facet normal 0 0 1
    outer loop
      vertex 3.94927 4.18333 2.5
      vertex 2.34615 1.70458 2.5
      vertex 3.94927 0.683332 2.5
    endloop
  endfacet
  facet normal 0 0 1
    outer loop
      vertex 5.93016 0.683332 2.5
      vertex 2.64928 -1.17954 2.5
      vertex 7.51667 -3.475 2.5
    endloop
  endfacet
  facet normal 0 0 1
    outer loop
      vertex 3.94927 0.683332 2.5
      vertex 2.83663 0.602943 2.5
      vertex 2.9 0 2.5
    endloop
  endfacet
  facet normal 0 0 1
    outer loop
      vertex 3.94927 0.683332 2.5
      vertex 2.64928 1.17954 2.5
      vertex 2.83663 0.602943 2.5
    endloop
  endfacet
  facet normal 0 0 1
    outer loop
      vertex 3.94927 0.683332 2.5
      vertex 2.34615 1.70458 2.5
      vertex 2.64928 1.17954 2.5
    endloop
  endfacet
  facet normal 0 0 1
    outer loop
      vertex 0.896149 2.75806 2.5
      vertex 3.94927 4.18333 2.5
      vertex 2.25582 6.94271 2.5
    endloop
  endfacet
  facet normal 0 0 1
    outer loop
      vertex 3.94927 4.18333 2.5
      vertex 1.94048 2.15512 2.5
      vertex 2.34615 1.70458 2.5
    endloop
  endfacet
  facet normal 0 0 1
    outer loop
      vertex 3.94927 4.18333 2.5
      vertex 1.45 2.51147 2.5
      vertex 1.94048 2.15512 2.5
    endloop
  endfacet
  facet normal 0 0 1
    outer loop
      vertex 3.94927 4.18333 2.5
      vertex 0.896149 2.75806 2.5
      vertex 1.45 2.51147 2.5
    endloop
  endfacet
  facet normal 0 0 1
    outer loop
      vertex 0.763058 7.26001 2.5
      vertex 0.896149 2.75806 2.5
      vertex 2.25582 6.94271 2.5
    endloop
  endfacet
  facet normal 0 0 1
    outer loop
      vertex 0.763058 7.26001 2.5
      vertex 0.303132 2.88411 2.5
      vertex 0.896149 2.75806 2.5
    endloop
  endfacet
  facet normal 0 0 1
    outer loop
      vertex 0.763058 7.26001 2.5
      vertex -0.303132 2.88411 2.5
      vertex 0.303132 2.88411 2.5
    endloop
  endfacet
  facet normal -0 0 1
    outer loop
      vertex -0.763058 7.26001 2.5
      vertex -0.303132 2.88411 2.5
      vertex 0.763058 7.26001 2.5
    endloop
  endfacet
  facet normal 0 0 1
    outer loop
      vertex -0.763058 7.26001 2.5
      vertex -0.896149 2.75806 2.5
      vertex -0.303132 2.88411 2.5
    endloop
  endfacet
  facet normal -0 0 1
    outer loop
      vertex -2.25582 6.94271 2.5
      vertex -0.896149 2.75806 2.5
      vertex -0.763058 7.26001 2.5
    endloop
  endfacet
  facet normal 0 0 1
    outer loop
      vertex -0.896149 2.75806 2.5
      vertex -2.25582 6.94271 2.5
      vertex -1.45 2.51147 2.5
    endloop
  endfacet
  facet normal -0 0 1
    outer loop
      vertex -3.65 6.32199 2.5
      vertex -1.45 2.51147 2.5
      vertex -2.25582 6.94271 2.5
    endloop
  endfacet
  facet normal 0 0 1
    outer loop
      vertex -1.45 2.51147 2.5
      vertex -3.65 6.32199 2.5
      vertex -1.94048 2.15512 2.5
    endloop
  endfacet
  facet normal -0 0 1
    outer loop
      vertex -4.88465 5.42496 2.5
      vertex -1.94048 2.15512 2.5
      vertex -3.65 6.32199 2.5
    endloop
  endfacet
  facet normal 0 0 1
    outer loop
      vertex -1.94048 2.15512 2.5
      vertex -4.88465 5.42496 2.5
      vertex -2.34615 1.70458 2.5
    endloop
  endfacet
  facet normal -0 0 1
    outer loop
      vertex -5.90582 4.29083 2.5
      vertex -2.34615 1.70458 2.5
      vertex -4.88465 5.42496 2.5
    endloop
  endfacet
  facet normal 0 0 1
    outer loop
      vertex -2.34615 1.70458 2.5
      vertex -5.90582 4.29083 2.5
      vertex -2.64928 1.17954 2.5
    endloop
  endfacet
  facet normal -0.587787 0.809016 0
    outer loop
      vertex -3.65 6.32199 -2.5
      vertex -4.88465 5.42496 2.5
      vertex -3.65 6.32199 2.5
    endloop
  endfacet
  facet normal -0.587787 0.809016 0
    outer loop
      vertex -4.88465 5.42496 2.5
      vertex -3.65 6.32199 -2.5
      vertex -4.88465 5.42496 -2.5
    endloop
  endfacet
  facet normal -0.207914 0.978147 0
    outer loop
      vertex -0.763058 7.26001 -2.5
      vertex -2.25582 6.94271 2.5
      vertex -0.763058 7.26001 2.5
    endloop
  endfacet
  facet normal -0.207914 0.978147 0
    outer loop
      vertex -2.25582 6.94271 2.5
      vertex -0.763058 7.26001 -2.5
      vertex -2.25582 6.94271 -2.5
    endloop
  endfacet
  facet normal 0 0 -1
    outer loop
      vertex 2.34615 1.70458 -2.5
      vertex 3.94927 0.683332 -2.5
      vertex 2.64928 1.17954 -2.5
    endloop
  endfacet
  facet normal 0 0 -1
    outer loop
      vertex 3.94927 0.683332 -2.5
      vertex 2.34615 1.70458 -2.5
      vertex 3.94927 4.18333 -2.5
    endloop
  endfacet
  facet normal 0 0 -1
    outer loop
      vertex 1.94048 2.15512 -2.5
      vertex 3.94927 4.18333 -2.5
      vertex 2.34615 1.70458 -2.5
    endloop
  endfacet
  facet normal 0 0 -1
    outer loop
      vertex 1.45 2.51147 -2.5
      vertex 3.94927 4.18333 -2.5
      vertex 1.94048 2.15512 -2.5
    endloop
  endfacet
  facet normal 0 0 -1
    outer loop
      vertex 0.896149 2.75806 -2.5
      vertex 3.94927 4.18333 -2.5
      vertex 1.45 2.51147 -2.5
    endloop
  endfacet
  facet normal 0 0 -1
    outer loop
      vertex 3.94927 4.18333 -2.5
      vertex 2.25582 6.94271 -2.5
      vertex 3.65 6.32199 -2.5
    endloop
  endfacet
  facet normal -0 0 -1
    outer loop
      vertex 3.94927 4.18333 -2.5
      vertex 0.896149 2.75806 -2.5
      vertex 2.25582 6.94271 -2.5
    endloop
  endfacet
  facet normal 0 0 -1
    outer loop
      vertex 0.896149 2.75806 -2.5
      vertex 0.763058 7.26001 -2.5
      vertex 2.25582 6.94271 -2.5
    endloop
  endfacet
  facet normal 0 0 -1
    outer loop
      vertex 0.303132 2.88411 -2.5
      vertex 0.763058 7.26001 -2.5
      vertex 0.896149 2.75806 -2.5
    endloop
  endfacet
  facet normal 0 0 -1
    outer loop
      vertex -0.303132 2.88411 -2.5
      vertex 0.763058 7.26001 -2.5
      vertex 0.303132 2.88411 -2.5
    endloop
  endfacet
  facet normal 0 0 -1
    outer loop
      vertex -0.303132 2.88411 -2.5
      vertex -0.763058 7.26001 -2.5
      vertex 0.763058 7.26001 -2.5
    endloop
  endfacet
  facet normal 0 0 -1
    outer loop
      vertex -0.896149 2.75806 -2.5
      vertex -0.763058 7.26001 -2.5
      vertex -0.303132 2.88411 -2.5
    endloop
  endfacet
  facet normal 0 0 -1
    outer loop
      vertex -2.25582 6.94271 -2.5
      vertex -0.896149 2.75806 -2.5
      vertex -1.45 2.51147 -2.5
    endloop
  endfacet
  facet normal 0 0 -1
    outer loop
      vertex -3.65 6.32199 -2.5
      vertex -1.45 2.51147 -2.5
      vertex -1.94048 2.15512 -2.5
    endloop
  endfacet
  facet normal 0 0 -1
    outer loop
      vertex -0.896149 2.75806 -2.5
      vertex -2.25582 6.94271 -2.5
      vertex -0.763058 7.26001 -2.5
    endloop
  endfacet
  facet normal 0 0 -1
    outer loop
      vertex -4.88465 5.42496 -2.5
      vertex -1.94048 2.15512 -2.5
      vertex -2.34615 1.70458 -2.5
    endloop
  endfacet
  facet normal 0 0 -1
    outer loop
      vertex -5.90582 4.29083 -2.5
      vertex -2.34615 1.70458 -2.5
      vertex -2.64928 1.17954 -2.5
    endloop
  endfacet
  facet normal 0 0 -1
    outer loop
      vertex -6.66888 2.96918 -2.5
      vertex -2.64928 1.17954 -2.5
      vertex -2.83663 0.602943 -2.5
    endloop
  endfacet
  facet normal 0 0 -1
    outer loop
      vertex -7.14048 1.51775 -2.5
      vertex -2.83663 0.602943 -2.5
      vertex -2.9 0 -2.5
    endloop
  endfacet
  facet normal 0 0 -1
    outer loop
      vertex -6.66888 -2.96918 -2.5
      vertex -2.64928 -1.17954 -2.5
      vertex -5.90582 -4.29083 -2.5
    endloop
  endfacet
  facet normal 0 0 -1
    outer loop
      vertex -1.45 2.51147 -2.5
      vertex -3.65 6.32199 -2.5
      vertex -2.25582 6.94271 -2.5
    endloop
  endfacet
  facet normal -0 0 -1
    outer loop
      vertex -2.64928 -1.17954 -2.5
      vertex -6.66888 -2.96918 -2.5
      vertex -2.83663 -0.602943 -2.5
    endloop
  endfacet
  facet normal 0 0 -1
    outer loop
      vertex -1.94048 2.15512 -2.5
      vertex -4.88465 5.42496 -2.5
      vertex -3.65 6.32199 -2.5
    endloop
  endfacet
  facet normal 0 0 -1
    outer loop
      vertex -7.14048 -1.51775 -2.5
      vertex -2.83663 -0.602943 -2.5
      vertex -6.66888 -2.96918 -2.5
    endloop
  endfacet
  facet normal 0 0 -1
    outer loop
      vertex -2.34615 1.70458 -2.5
      vertex -5.90582 4.29083 -2.5
      vertex -4.88465 5.42496 -2.5
    endloop
  endfacet
  facet normal -0 0 -1
    outer loop
      vertex -2.83663 -0.602943 -2.5
      vertex -7.14048 -1.51775 -2.5
      vertex -2.9 0 -2.5
    endloop
  endfacet
  facet normal 0 0 -1
    outer loop
      vertex -2.64928 1.17954 -2.5
      vertex -6.66888 2.96918 -2.5
      vertex -5.90582 4.29083 -2.5
    endloop
  endfacet
  facet normal 0 0 -1
    outer loop
      vertex -7.3 0 -2.5
      vertex -2.9 0 -2.5
      vertex -7.14048 -1.51775 -2.5
    endloop
  endfacet
  facet normal 0 0 -1
    outer loop
      vertex -2.83663 0.602943 -2.5
      vertex -7.14048 1.51775 -2.5
      vertex -6.66888 2.96918 -2.5
    endloop
  endfacet
  facet normal 0 0 -1
    outer loop
      vertex -2.9 0 -2.5
      vertex -7.3 0 -2.5
      vertex -7.14048 1.51775 -2.5
    endloop
  endfacet
  facet normal 0 0 -1
    outer loop
      vertex 8.51667 3.5 -2.5
      vertex 9.51667 4.5 -2.5
      vertex 9.51667 3.5 -2.5
    endloop
  endfacet
  facet normal -0 0 -1
    outer loop
      vertex 9.51667 4.5 -2.5
      vertex 8.51667 3.5 -2.5
      vertex 8.51667 4.5 -2.5
    endloop
  endfacet
  facet normal 0 0 -1
    outer loop
      vertex 8.51667 1.5 -2.5
      vertex 9.51667 2.5 -2.5
      vertex 9.51667 1.5 -2.5
    endloop
  endfacet
  facet normal -0 0 -1
    outer loop
      vertex 9.51667 2.5 -2.5
      vertex 8.51667 1.5 -2.5
      vertex 8.51667 2.5 -2.5
    endloop
  endfacet
  facet normal 0 0 -1
    outer loop
      vertex 8.51667 -0.5 -2.5
      vertex 9.51667 0.5 -2.5
      vertex 9.51667 -0.5 -2.5
    endloop
  endfacet
  facet normal -0 0 -1
    outer loop
      vertex 9.51667 0.5 -2.5
      vertex 8.51667 -0.5 -2.5
      vertex 8.51667 0.5 -2.5
    endloop
  endfacet
  facet normal 0 0 -1
    outer loop
      vertex 8.51667 -2.5 -2.5
      vertex 9.51667 -1.5 -2.5
      vertex 9.51667 -2.5 -2.5
    endloop
  endfacet
  facet normal -0 0 -1
    outer loop
      vertex 9.51667 -1.5 -2.5
      vertex 8.51667 -2.5 -2.5
      vertex 8.51667 -1.5 -2.5
    endloop
  endfacet
  facet normal 0 0 -1
    outer loop
      vertex 9.51667 -2.5 -2.5
      vertex 10.95 -5.475 -2.5
      vertex 9.51667 -3.475 -2.5
    endloop
  endfacet
  facet normal 0 0 -1
    outer loop
      vertex 10.95 -5.475 -2.5
      vertex 7.51667 -3.475 -2.5
      vertex 9.51667 -3.475 -2.5
    endloop
  endfacet
  facet normal 0 0 -1
    outer loop
      vertex 7.51667 -3.475 -2.5
      vertex 5.93016 0.683332 -2.5
      vertex 7.51667 5.475 -2.5
    endloop
  endfacet
  facet normal 0 0 -1
    outer loop
      vertex 4.81577 -5.475 -2.5
      vertex 7.51667 -3.475 -2.5
      vertex 10.95 -5.475 -2.5
    endloop
  endfacet
  facet normal 0 0 -1
    outer loop
      vertex 2.64928 -1.17954 -2.5
      vertex 7.51667 -3.475 -2.5
      vertex 4.81577 -5.475 -2.5
    endloop
  endfacet
  facet normal 0 0 -1
    outer loop
      vertex 7.51667 -3.475 -2.5
      vertex 2.64928 -1.17954 -2.5
      vertex 5.93016 0.683332 -2.5
    endloop
  endfacet
  facet normal 0 -0 -1
    outer loop
      vertex 2.83663 -0.602943 -2.5
      vertex 5.93016 0.683332 -2.5
      vertex 2.64928 -1.17954 -2.5
    endloop
  endfacet
  facet normal 0 0 -1
    outer loop
      vertex 2.64928 -1.17954 -2.5
      vertex 4.81577 -5.475 -2.5
      vertex 3.65 -6.32199 -2.5
    endloop
  endfacet
  facet normal 0 0 -1
    outer loop
      vertex 9.51667 -1.5 -2.5
      vertex 10.95 -5.475 -2.5
      vertex 9.51667 -2.5 -2.5
    endloop
  endfacet
  facet normal 0 0 -1
    outer loop
      vertex 9.51667 -0.5 -2.5
      vertex 10.95 -5.475 -2.5
      vertex 9.51667 -1.5 -2.5
    endloop
  endfacet
  facet normal 0 0 -1
    outer loop
      vertex 10.95 -5.475 -2.5
      vertex 9.51667 -0.5 -2.5
      vertex 10.95 5.475 -2.5
    endloop
  endfacet
  facet normal 0 0 -1
    outer loop
      vertex 9.51667 0.5 -2.5
      vertex 10.95 5.475 -2.5
      vertex 9.51667 -0.5 -2.5
    endloop
  endfacet
  facet normal 0 0 -1
    outer loop
      vertex 9.51667 1.5 -2.5
      vertex 10.95 5.475 -2.5
      vertex 9.51667 0.5 -2.5
    endloop
  endfacet
  facet normal 0 0 -1
    outer loop
      vertex 9.51667 2.5 -2.5
      vertex 10.95 5.475 -2.5
      vertex 9.51667 1.5 -2.5
    endloop
  endfacet
  facet normal 0 0 -1
    outer loop
      vertex 9.51667 3.5 -2.5
      vertex 10.95 5.475 -2.5
      vertex 9.51667 2.5 -2.5
    endloop
  endfacet
  facet normal 0 0 -1
    outer loop
      vertex 9.51667 4.5 -2.5
      vertex 10.95 5.475 -2.5
      vertex 9.51667 3.5 -2.5
    endloop
  endfacet
  facet normal -0 0 -1
    outer loop
      vertex 10.95 5.475 -2.5
      vertex 9.51667 4.5 -2.5
      vertex 9.51667 5.475 -2.5
    endloop
  endfacet
  facet normal 0 0 -1
    outer loop
      vertex 5.93016 4.18333 -2.5
      vertex 7.51667 5.475 -2.5
      vertex 5.93016 0.683332 -2.5
    endloop
  endfacet
  facet normal 0 0 -1
    outer loop
      vertex 5.93016 4.18333 -2.5
      vertex 4.81577 5.475 -2.5
      vertex 7.51667 5.475 -2.5
    endloop
  endfacet
  facet normal 0 0 -1
    outer loop
      vertex 3.94927 4.18333 -2.5
      vertex 4.81577 5.475 -2.5
      vertex 5.93016 4.18333 -2.5
    endloop
  endfacet
  facet normal 0 0 -1
    outer loop
      vertex 3.94927 4.18333 -2.5
      vertex 3.65 6.32199 -2.5
      vertex 4.81577 5.475 -2.5
    endloop
  endfacet
  facet normal 0 0 -1
    outer loop
      vertex 2.83663 0.602943 -2.5
      vertex 3.94927 0.683332 -2.5
      vertex 2.9 0 -2.5
    endloop
  endfacet
  facet normal 0 0 -1
    outer loop
      vertex 2.64928 1.17954 -2.5
      vertex 3.94927 0.683332 -2.5
      vertex 2.83663 0.602943 -2.5
    endloop
  endfacet
  facet normal 0 0 -1
    outer loop
      vertex 3.94927 0.683332 -2.5
      vertex 2.83663 -0.602943 -2.5
      vertex 2.9 0 -2.5
    endloop
  endfacet
  facet normal -0 0 -1
    outer loop
      vertex 5.93016 0.683332 -2.5
      vertex 2.83663 -0.602943 -2.5
      vertex 3.94927 0.683332 -2.5
    endloop
  endfacet
  facet normal 0 0 -1
    outer loop
      vertex 3.65 -6.32199 -2.5
      vertex 2.34615 -1.70458 -2.5
      vertex 2.64928 -1.17954 -2.5
    endloop
  endfacet
  facet normal 0 0 -1
    outer loop
      vertex 1.45 -2.51147 -2.5
      vertex 3.65 -6.32199 -2.5
      vertex 2.25582 -6.94271 -2.5
    endloop
  endfacet
  facet normal 0 0 -1
    outer loop
      vertex 3.65 -6.32199 -2.5
      vertex 1.94048 -2.15512 -2.5
      vertex 2.34615 -1.70458 -2.5
    endloop
  endfacet
  facet normal 0 0 -1
    outer loop
      vertex 3.65 -6.32199 -2.5
      vertex 1.45 -2.51147 -2.5
      vertex 1.94048 -2.15512 -2.5
    endloop
  endfacet
  facet normal 0 0 -1
    outer loop
      vertex 2.25582 -6.94271 -2.5
      vertex 0.896149 -2.75806 -2.5
      vertex 1.45 -2.51147 -2.5
    endloop
  endfacet
  facet normal 0 0 -1
    outer loop
      vertex 0.763058 -7.26001 -2.5
      vertex 0.896149 -2.75806 -2.5
      vertex 2.25582 -6.94271 -2.5
    endloop
  endfacet
  facet normal 0 0 -1
    outer loop
      vertex 0.763058 -7.26001 -2.5
      vertex 0.303132 -2.88411 -2.5
      vertex 0.896149 -2.75806 -2.5
    endloop
  endfacet
  facet normal 0 0 -1
    outer loop
      vertex 0.763058 -7.26001 -2.5
      vertex -0.303132 -2.88411 -2.5
      vertex 0.303132 -2.88411 -2.5
    endloop
  endfacet
  facet normal 0 0 -1
    outer loop
      vertex -0.763058 -7.26001 -2.5
      vertex -0.303132 -2.88411 -2.5
      vertex 0.763058 -7.26001 -2.5
    endloop
  endfacet
  facet normal 0 0 -1
    outer loop
      vertex -0.763058 -7.26001 -2.5
      vertex -0.896149 -2.75806 -2.5
      vertex -0.303132 -2.88411 -2.5
    endloop
  endfacet
  facet normal 0 0 -1
    outer loop
      vertex -2.25582 -6.94271 -2.5
      vertex -0.896149 -2.75806 -2.5
      vertex -0.763058 -7.26001 -2.5
    endloop
  endfacet
  facet normal -0 0 -1
    outer loop
      vertex -0.896149 -2.75806 -2.5
      vertex -2.25582 -6.94271 -2.5
      vertex -1.45 -2.51147 -2.5
    endloop
  endfacet
  facet normal 0 0 -1
    outer loop
      vertex -3.65 -6.32199 -2.5
      vertex -1.45 -2.51147 -2.5
      vertex -2.25582 -6.94271 -2.5
    endloop
  endfacet
  facet normal -0 0 -1
    outer loop
      vertex -1.45 -2.51147 -2.5
      vertex -3.65 -6.32199 -2.5
      vertex -1.94048 -2.15512 -2.5
    endloop
  endfacet
  facet normal 0 0 -1
    outer loop
      vertex -4.88465 -5.42496 -2.5
      vertex -1.94048 -2.15512 -2.5
      vertex -3.65 -6.32199 -2.5
    endloop
  endfacet
  facet normal -0 0 -1
    outer loop
      vertex -1.94048 -2.15512 -2.5
      vertex -4.88465 -5.42496 -2.5
      vertex -2.34615 -1.70458 -2.5
    endloop
  endfacet
  facet normal 0 0 -1
    outer loop
      vertex -5.90582 -4.29083 -2.5
      vertex -2.34615 -1.70458 -2.5
      vertex -4.88465 -5.42496 -2.5
    endloop
  endfacet
  facet normal -0 0 -1
    outer loop
      vertex -2.34615 -1.70458 -2.5
      vertex -5.90582 -4.29083 -2.5
      vertex -2.64928 -1.17954 -2.5
    endloop
  endfacet
  facet normal -0.866024 -0.500002 0
    outer loop
      vertex -5.90582 -4.29083 -2.5
      vertex -6.66888 -2.96918 2.5
      vertex -6.66888 -2.96918 -2.5
    endloop
  endfacet
  facet normal -0.866024 -0.500002 0
    outer loop
      vertex -6.66888 -2.96918 2.5
      vertex -5.90582 -4.29083 -2.5
      vertex -5.90582 -4.29083 2.5
    endloop
  endfacet
  facet normal 0.587789 -0.809014 0
    outer loop
      vertex 3.65 -6.32199 -2.5
      vertex 4.81577 -5.475 2.5
      vertex 3.65 -6.32199 2.5
    endloop
  endfacet
  facet normal 0.587789 -0.809014 0
    outer loop
      vertex 4.81577 -5.475 2.5
      vertex 3.65 -6.32199 -2.5
      vertex 4.81577 -5.475 -2.5
    endloop
  endfacet
  facet normal -0.207914 -0.978147 0
    outer loop
      vertex -2.25582 -6.94271 -2.5
      vertex -0.763058 -7.26001 2.5
      vertex -2.25582 -6.94271 2.5
    endloop
  endfacet
  facet normal -0.207914 -0.978147 -0
    outer loop
      vertex -0.763058 -7.26001 2.5
      vertex -2.25582 -6.94271 -2.5
      vertex -0.763058 -7.26001 -2.5
    endloop
  endfacet
  facet normal -0.743147 -0.669129 0
    outer loop
      vertex -4.88465 -5.42496 -2.5
      vertex -5.90582 -4.29083 2.5
      vertex -5.90582 -4.29083 -2.5
    endloop
  endfacet
  facet normal -0.743147 -0.669129 0
    outer loop
      vertex -5.90582 -4.29083 2.5
      vertex -4.88465 -5.42496 -2.5
      vertex -4.88465 -5.42496 2.5
    endloop
  endfacet
  facet normal -0.951056 -0.309018 0
    outer loop
      vertex -6.66888 -2.96918 -2.5
      vertex -7.14048 -1.51775 2.5
      vertex -7.14048 -1.51775 -2.5
    endloop
  endfacet
  facet normal -0.951056 -0.309018 0
    outer loop
      vertex -7.14048 -1.51775 2.5
      vertex -6.66888 -2.96918 -2.5
      vertex -6.66888 -2.96918 2.5
    endloop
  endfacet
  facet normal -0.994522 -0.104527 0
    outer loop
      vertex -7.14048 -1.51775 -2.5
      vertex -7.3 0 2.5
      vertex -7.3 0 -2.5
    endloop
  endfacet
  facet normal -0.994522 -0.104527 0
    outer loop
      vertex -7.3 0 2.5
      vertex -7.14048 -1.51775 -2.5
      vertex -7.14048 -1.51775 2.5
    endloop
  endfacet
  facet normal 0.406732 -0.913548 0
    outer loop
      vertex 2.25582 -6.94271 -2.5
      vertex 3.65 -6.32199 2.5
      vertex 2.25582 -6.94271 2.5
    endloop
  endfacet
  facet normal 0.406732 -0.913548 0
    outer loop
      vertex 3.65 -6.32199 2.5
      vertex 2.25582 -6.94271 -2.5
      vertex 3.65 -6.32199 -2.5
    endloop
  endfacet
  facet normal 0.207914 -0.978147 0
    outer loop
      vertex 0.763058 -7.26001 -2.5
      vertex 2.25582 -6.94271 2.5
      vertex 0.763058 -7.26001 2.5
    endloop
  endfacet
  facet normal 0.207914 -0.978147 0
    outer loop
      vertex 2.25582 -6.94271 2.5
      vertex 0.763058 -7.26001 -2.5
      vertex 2.25582 -6.94271 -2.5
    endloop
  endfacet
  facet normal -0.406732 -0.913548 0
    outer loop
      vertex -3.65 -6.32199 -2.5
      vertex -2.25582 -6.94271 2.5
      vertex -3.65 -6.32199 2.5
    endloop
  endfacet
  facet normal -0.406732 -0.913548 -0
    outer loop
      vertex -2.25582 -6.94271 2.5
      vertex -3.65 -6.32199 -2.5
      vertex -2.25582 -6.94271 -2.5
    endloop
  endfacet
  facet normal -0.587787 -0.809016 0
    outer loop
      vertex -4.88465 -5.42496 -2.5
      vertex -3.65 -6.32199 2.5
      vertex -4.88465 -5.42496 2.5
    endloop
  endfacet
  facet normal -0.587787 -0.809016 -0
    outer loop
      vertex -3.65 -6.32199 2.5
      vertex -4.88465 -5.42496 -2.5
      vertex -3.65 -6.32199 -2.5
    endloop
  endfacet
  facet normal 1 -0 0
    outer loop
      vertex 10.95 -5.475 2.5
      vertex 10.95 5.475 -2.5
      vertex 10.95 5.475 2.5
    endloop
  endfacet
  facet normal 1 0 0
    outer loop
      vertex 10.95 5.475 -2.5
      vertex 10.95 -5.475 2.5
      vertex 10.95 -5.475 -2.5
    endloop
  endfacet
  facet normal 0 -1 0
    outer loop
      vertex 4.81577 -5.475 -2.5
      vertex 10.95 -5.475 2.5
      vertex 4.81577 -5.475 2.5
    endloop
  endfacet
  facet normal 0 -1 -0
    outer loop
      vertex 10.95 -5.475 2.5
      vertex 4.81577 -5.475 -2.5
      vertex 10.95 -5.475 -2.5
    endloop
  endfacet
  facet normal 0 1 -0
    outer loop
      vertex 10.95 5.475 -2.5
      vertex 9.51667 5.475 2.5
      vertex 10.95 5.475 2.5
    endloop
  endfacet
  facet normal 0 1 0
    outer loop
      vertex 9.51667 5.475 2.5
      vertex 10.95 5.475 -2.5
      vertex 9.51667 5.475 -2.5
    endloop
  endfacet
  facet normal 0 1 -0
    outer loop
      vertex 7.51667 5.475 -2.5
      vertex 4.81577 5.475 2.5
      vertex 7.51667 5.475 2.5
    endloop
  endfacet
  facet normal 0 1 0
    outer loop
      vertex 4.81577 5.475 2.5
      vertex 7.51667 5.475 -2.5
      vertex 4.81577 5.475 -2.5
    endloop
  endfacet
  facet normal -1 0 0
    outer loop
      vertex 8.51667 -2.5 -2.5
      vertex 8.51667 -1.5 2.5
      vertex 8.51667 -1.5 -2.5
    endloop
  endfacet
  facet normal -1 -0 0
    outer loop
      vertex 8.51667 -1.5 2.5
      vertex 8.51667 -2.5 -2.5
      vertex 8.51667 -2.5 2.5
    endloop
  endfacet
  facet normal 0 -1 0
    outer loop
      vertex 8.51667 -2.5 -2.5
      vertex 9.51667 -2.5 2.5
      vertex 8.51667 -2.5 2.5
    endloop
  endfacet
  facet normal 0 -1 -0
    outer loop
      vertex 9.51667 -2.5 2.5
      vertex 8.51667 -2.5 -2.5
      vertex 9.51667 -2.5 -2.5
    endloop
  endfacet
  facet normal 0 1 -0
    outer loop
      vertex 9.51667 -1.5 -2.5
      vertex 8.51667 -1.5 2.5
      vertex 9.51667 -1.5 2.5
    endloop
  endfacet
  facet normal 0 1 0
    outer loop
      vertex 8.51667 -1.5 2.5
      vertex 9.51667 -1.5 -2.5
      vertex 8.51667 -1.5 -2.5
    endloop
  endfacet
  facet normal -1 0 0
    outer loop
      vertex 8.51667 -0.5 -2.5
      vertex 8.51667 0.5 2.5
      vertex 8.51667 0.5 -2.5
    endloop
  endfacet
  facet normal -1 -0 0
    outer loop
      vertex 8.51667 0.5 2.5
      vertex 8.51667 -0.5 -2.5
      vertex 8.51667 -0.5 2.5
    endloop
  endfacet
  facet normal 0 -1 0
    outer loop
      vertex 8.51667 -0.5 -2.5
      vertex 9.51667 -0.5 2.5
      vertex 8.51667 -0.5 2.5
    endloop
  endfacet
  facet normal 0 -1 -0
    outer loop
      vertex 9.51667 -0.5 2.5
      vertex 8.51667 -0.5 -2.5
      vertex 9.51667 -0.5 -2.5
    endloop
  endfacet
  facet normal 0 1 -0
    outer loop
      vertex 9.51667 0.5 -2.5
      vertex 8.51667 0.5 2.5
      vertex 9.51667 0.5 2.5
    endloop
  endfacet
  facet normal 0 1 0
    outer loop
      vertex 8.51667 0.5 2.5
      vertex 9.51667 0.5 -2.5
      vertex 8.51667 0.5 -2.5
    endloop
  endfacet
  facet normal -1 0 0
    outer loop
      vertex 8.51667 1.5 -2.5
      vertex 8.51667 2.5 2.5
      vertex 8.51667 2.5 -2.5
    endloop
  endfacet
  facet normal -1 -0 0
    outer loop
      vertex 8.51667 2.5 2.5
      vertex 8.51667 1.5 -2.5
      vertex 8.51667 1.5 2.5
    endloop
  endfacet
  facet normal 0 -1 0
    outer loop
      vertex 8.51667 1.5 -2.5
      vertex 9.51667 1.5 2.5
      vertex 8.51667 1.5 2.5
    endloop
  endfacet
  facet normal 0 -1 -0
    outer loop
      vertex 9.51667 1.5 2.5
      vertex 8.51667 1.5 -2.5
      vertex 9.51667 1.5 -2.5
    endloop
  endfacet
  facet normal 0 1 -0
    outer loop
      vertex 9.51667 2.5 -2.5
      vertex 8.51667 2.5 2.5
      vertex 9.51667 2.5 2.5
    endloop
  endfacet
  facet normal 0 1 0
    outer loop
      vertex 8.51667 2.5 2.5
      vertex 9.51667 2.5 -2.5
      vertex 8.51667 2.5 -2.5
    endloop
  endfacet
  facet normal -1 0 0
    outer loop
      vertex 8.51667 3.5 -2.5
      vertex 8.51667 4.5 2.5
      vertex 8.51667 4.5 -2.5
    endloop
  endfacet
  facet normal -1 -0 0
    outer loop
      vertex 8.51667 4.5 2.5
      vertex 8.51667 3.5 -2.5
      vertex 8.51667 3.5 2.5
    endloop
  endfacet
  facet normal 0 1 -0
    outer loop
      vertex 9.51667 4.5 -2.5
      vertex 8.51667 4.5 2.5
      vertex 9.51667 4.5 2.5
    endloop
  endfacet
  facet normal 0 1 0
    outer loop
      vertex 8.51667 4.5 2.5
      vertex 9.51667 4.5 -2.5
      vertex 8.51667 4.5 -2.5
    endloop
  endfacet
  facet normal 0 -1 0
    outer loop
      vertex 8.51667 3.5 -2.5
      vertex 9.51667 3.5 2.5
      vertex 8.51667 3.5 2.5
    endloop
  endfacet
  facet normal 0 -1 -0
    outer loop
      vertex 9.51667 3.5 2.5
      vertex 8.51667 3.5 -2.5
      vertex 9.51667 3.5 -2.5
    endloop
  endfacet
  facet normal 1 -0 0
    outer loop
      vertex 7.51667 -3.475 2.5
      vertex 7.51667 5.475 -2.5
      vertex 7.51667 5.475 2.5
    endloop
  endfacet
  facet normal 1 0 0
    outer loop
      vertex 7.51667 5.475 -2.5
      vertex 7.51667 -3.475 2.5
      vertex 7.51667 -3.475 -2.5
    endloop
  endfacet
  facet normal -1 0 0
    outer loop
      vertex 9.51667 -3.475 -2.5
      vertex 9.51667 -2.5 2.5
      vertex 9.51667 -2.5 -2.5
    endloop
  endfacet
  facet normal -1 -0 0
    outer loop
      vertex 9.51667 -2.5 2.5
      vertex 9.51667 -3.475 -2.5
      vertex 9.51667 -3.475 2.5
    endloop
  endfacet
  facet normal -1 0 0
    outer loop
      vertex 9.51667 -1.5 -2.5
      vertex 9.51667 -0.5 2.5
      vertex 9.51667 -0.5 -2.5
    endloop
  endfacet
  facet normal -1 -0 0
    outer loop
      vertex 9.51667 -0.5 2.5
      vertex 9.51667 -1.5 -2.5
      vertex 9.51667 -1.5 2.5
    endloop
  endfacet
  facet normal -1 0 0
    outer loop
      vertex 9.51667 0.5 -2.5
      vertex 9.51667 1.5 2.5
      vertex 9.51667 1.5 -2.5
    endloop
  endfacet
  facet normal -1 -0 0
    outer loop
      vertex 9.51667 1.5 2.5
      vertex 9.51667 0.5 -2.5
      vertex 9.51667 0.5 2.5
    endloop
  endfacet
  facet normal -1 0 0
    outer loop
      vertex 9.51667 2.5 -2.5
      vertex 9.51667 3.5 2.5
      vertex 9.51667 3.5 -2.5
    endloop
  endfacet
  facet normal -1 -0 0
    outer loop
      vertex 9.51667 3.5 2.5
      vertex 9.51667 2.5 -2.5
      vertex 9.51667 2.5 2.5
    endloop
  endfacet
  facet normal -1 0 0
    outer loop
      vertex 9.51667 4.5 -2.5
      vertex 9.51667 5.475 2.5
      vertex 9.51667 5.475 -2.5
    endloop
  endfacet
  facet normal -1 -0 0
    outer loop
      vertex 9.51667 5.475 2.5
      vertex 9.51667 4.5 -2.5
      vertex 9.51667 4.5 2.5
    endloop
  endfacet
  facet normal 0 1 -0
    outer loop
      vertex 9.51667 -3.475 -2.5
      vertex 7.51667 -3.475 2.5
      vertex 9.51667 -3.475 2.5
    endloop
  endfacet
  facet normal 0 1 0
    outer loop
      vertex 7.51667 -3.475 2.5
      vertex 9.51667 -3.475 -2.5
      vertex 7.51667 -3.475 -2.5
    endloop
  endfacet
  facet normal -0.994522 -0.104525 0
    outer loop
      vertex 2.9 0 -2.5
      vertex 2.83663 0.602943 2.5
      vertex 2.83663 0.602943 -2.5
    endloop
  endfacet
  facet normal -0.994522 -0.104525 0
    outer loop
      vertex 2.83663 0.602943 2.5
      vertex 2.9 0 -2.5
      vertex 2.9 0 2.5
    endloop
  endfacet
  facet normal 0.994522 -0.104525 0
    outer loop
      vertex -2.9 0 2.5
      vertex -2.83663 0.602943 -2.5
      vertex -2.83663 0.602943 2.5
    endloop
  endfacet
  facet normal 0.994522 -0.104525 0
    outer loop
      vertex -2.83663 0.602943 -2.5
      vertex -2.9 0 2.5
      vertex -2.9 0 -2.5
    endloop
  endfacet
  facet normal 0 -1 0
    outer loop
      vertex -0.303132 2.88411 -2.5
      vertex 0.303132 2.88411 2.5
      vertex -0.303132 2.88411 2.5
    endloop
  endfacet
  facet normal 0 -1 -0
    outer loop
      vertex 0.303132 2.88411 2.5
      vertex -0.303132 2.88411 -2.5
      vertex 0.303132 2.88411 -2.5
    endloop
  endfacet
  facet normal 0 1 -0
    outer loop
      vertex 0.303132 -2.88411 -2.5
      vertex -0.303132 -2.88411 2.5
      vertex 0.303132 -2.88411 2.5
    endloop
  endfacet
  facet normal 0 1 0
    outer loop
      vertex -0.303132 -2.88411 2.5
      vertex 0.303132 -2.88411 -2.5
      vertex -0.303132 -2.88411 -2.5
    endloop
  endfacet
  facet normal -0.58778 -0.809021 0
    outer loop
      vertex 1.45 2.51147 -2.5
      vertex 1.94048 2.15512 2.5
      vertex 1.45 2.51147 2.5
    endloop
  endfacet
  facet normal -0.58778 -0.809021 -0
    outer loop
      vertex 1.94048 2.15512 2.5
      vertex 1.45 2.51147 -2.5
      vertex 1.94048 2.15512 -2.5
    endloop
  endfacet
  facet normal 0.58778 -0.809021 0
    outer loop
      vertex -1.94048 2.15512 -2.5
      vertex -1.45 2.51147 2.5
      vertex -1.94048 2.15512 2.5
    endloop
  endfacet
  facet normal 0.58778 -0.809021 0
    outer loop
      vertex -1.45 2.51147 2.5
      vertex -1.94048 2.15512 -2.5
      vertex -1.45 2.51147 -2.5
    endloop
  endfacet
  facet normal 0.406736 -0.913546 0
    outer loop
      vertex -1.45 2.51147 -2.5
      vertex -0.896149 2.75806 2.5
      vertex -1.45 2.51147 2.5
    endloop
  endfacet
  facet normal 0.406736 -0.913546 0
    outer loop
      vertex -0.896149 2.75806 2.5
      vertex -1.45 2.51147 -2.5
      vertex -0.896149 2.75806 -2.5
    endloop
  endfacet
  facet normal -0.866027 0.499998 0
    outer loop
      vertex 2.34615 -1.70458 -2.5
      vertex 2.64928 -1.17954 2.5
      vertex 2.64928 -1.17954 -2.5
    endloop
  endfacet
  facet normal -0.866027 0.499998 0
    outer loop
      vertex 2.64928 -1.17954 2.5
      vertex 2.34615 -1.70458 -2.5
      vertex 2.34615 -1.70458 2.5
    endloop
  endfacet
  facet normal -0.866027 -0.499998 0
    outer loop
      vertex 2.64928 1.17954 -2.5
      vertex 2.34615 1.70458 2.5
      vertex 2.34615 1.70458 -2.5
    endloop
  endfacet
  facet normal -0.866027 -0.499998 0
    outer loop
      vertex 2.34615 1.70458 2.5
      vertex 2.64928 1.17954 -2.5
      vertex 2.64928 1.17954 2.5
    endloop
  endfacet
  facet normal -0.951055 -0.30902 0
    outer loop
      vertex 2.83663 0.602943 -2.5
      vertex 2.64928 1.17954 2.5
      vertex 2.64928 1.17954 -2.5
    endloop
  endfacet
  facet normal -0.951055 -0.30902 0
    outer loop
      vertex 2.64928 1.17954 2.5
      vertex 2.83663 0.602943 -2.5
      vertex 2.83663 0.602943 2.5
    endloop
  endfacet
  facet normal -0.743143 -0.669132 0
    outer loop
      vertex 2.34615 1.70458 -2.5
      vertex 1.94048 2.15512 2.5
      vertex 1.94048 2.15512 -2.5
    endloop
  endfacet
  facet normal -0.743143 -0.669132 0
    outer loop
      vertex 1.94048 2.15512 2.5
      vertex 2.34615 1.70458 -2.5
      vertex 2.34615 1.70458 2.5
    endloop
  endfacet
  facet normal -0.207912 -0.978147 0
    outer loop
      vertex 0.303132 2.88411 -2.5
      vertex 0.896149 2.75806 2.5
      vertex 0.303132 2.88411 2.5
    endloop
  endfacet
  facet normal -0.207912 -0.978147 -0
    outer loop
      vertex 0.896149 2.75806 2.5
      vertex 0.303132 2.88411 -2.5
      vertex 0.896149 2.75806 -2.5
    endloop
  endfacet
  facet normal -0.406736 -0.913546 0
    outer loop
      vertex 0.896149 2.75806 -2.5
      vertex 1.45 2.51147 2.5
      vertex 0.896149 2.75806 2.5
    endloop
  endfacet
  facet normal -0.406736 -0.913546 -0
    outer loop
      vertex 1.45 2.51147 2.5
      vertex 0.896149 2.75806 -2.5
      vertex 1.45 2.51147 -2.5
    endloop
  endfacet
  facet normal 0.866027 -0.499998 0
    outer loop
      vertex -2.64928 1.17954 2.5
      vertex -2.34615 1.70458 -2.5
      vertex -2.34615 1.70458 2.5
    endloop
  endfacet
  facet normal 0.866027 -0.499998 0
    outer loop
      vertex -2.34615 1.70458 -2.5
      vertex -2.64928 1.17954 2.5
      vertex -2.64928 1.17954 -2.5
    endloop
  endfacet
  facet normal 0.743143 -0.669132 0
    outer loop
      vertex -2.34615 1.70458 2.5
      vertex -1.94048 2.15512 -2.5
      vertex -1.94048 2.15512 2.5
    endloop
  endfacet
  facet normal 0.743143 -0.669132 0
    outer loop
      vertex -1.94048 2.15512 -2.5
      vertex -2.34615 1.70458 2.5
      vertex -2.34615 1.70458 -2.5
    endloop
  endfacet
  facet normal 0.951055 -0.30902 0
    outer loop
      vertex -2.83663 0.602943 2.5
      vertex -2.64928 1.17954 -2.5
      vertex -2.64928 1.17954 2.5
    endloop
  endfacet
  facet normal 0.951055 -0.30902 0
    outer loop
      vertex -2.64928 1.17954 -2.5
      vertex -2.83663 0.602943 2.5
      vertex -2.83663 0.602943 -2.5
    endloop
  endfacet
  facet normal 0.207912 -0.978147 0
    outer loop
      vertex -0.896149 2.75806 -2.5
      vertex -0.303132 2.88411 2.5
      vertex -0.896149 2.75806 2.5
    endloop
  endfacet
  facet normal 0.207912 -0.978147 0
    outer loop
      vertex -0.303132 2.88411 2.5
      vertex -0.896149 2.75806 -2.5
      vertex -0.303132 2.88411 -2.5
    endloop
  endfacet
  facet normal -0.994522 0.104525 0
    outer loop
      vertex 2.83663 -0.602943 -2.5
      vertex 2.9 0 2.5
      vertex 2.9 0 -2.5
    endloop
  endfacet
  facet normal -0.994522 0.104525 0
    outer loop
      vertex 2.9 0 2.5
      vertex 2.83663 -0.602943 -2.5
      vertex 2.83663 -0.602943 2.5
    endloop
  endfacet
  facet normal -0.58778 0.809021 0
    outer loop
      vertex 1.94048 -2.15512 -2.5
      vertex 1.45 -2.51147 2.5
      vertex 1.94048 -2.15512 2.5
    endloop
  endfacet
  facet normal -0.58778 0.809021 0
    outer loop
      vertex 1.45 -2.51147 2.5
      vertex 1.94048 -2.15512 -2.5
      vertex 1.45 -2.51147 -2.5
    endloop
  endfacet
  facet normal -0.743143 0.669132 0
    outer loop
      vertex 1.94048 -2.15512 -2.5
      vertex 2.34615 -1.70458 2.5
      vertex 2.34615 -1.70458 -2.5
    endloop
  endfacet
  facet normal -0.743143 0.669132 0
    outer loop
      vertex 2.34615 -1.70458 2.5
      vertex 1.94048 -2.15512 -2.5
      vertex 1.94048 -2.15512 2.5
    endloop
  endfacet
  facet normal -0.951055 0.30902 0
    outer loop
      vertex 2.64928 -1.17954 -2.5
      vertex 2.83663 -0.602943 2.5
      vertex 2.83663 -0.602943 -2.5
    endloop
  endfacet
  facet normal -0.951055 0.30902 0
    outer loop
      vertex 2.83663 -0.602943 2.5
      vertex 2.64928 -1.17954 -2.5
      vertex 2.64928 -1.17954 2.5
    endloop
  endfacet
  facet normal 0.866027 0.499998 0
    outer loop
      vertex -2.34615 -1.70458 2.5
      vertex -2.64928 -1.17954 -2.5
      vertex -2.64928 -1.17954 2.5
    endloop
  endfacet
  facet normal 0.866027 0.499998 0
    outer loop
      vertex -2.64928 -1.17954 -2.5
      vertex -2.34615 -1.70458 2.5
      vertex -2.34615 -1.70458 -2.5
    endloop
  endfacet
  facet normal 0.743143 0.669132 0
    outer loop
      vertex -1.94048 -2.15512 2.5
      vertex -2.34615 -1.70458 -2.5
      vertex -2.34615 -1.70458 2.5
    endloop
  endfacet
  facet normal 0.743143 0.669132 0
    outer loop
      vertex -2.34615 -1.70458 -2.5
      vertex -1.94048 -2.15512 2.5
      vertex -1.94048 -2.15512 -2.5
    endloop
  endfacet
  facet normal 0.207912 0.978147 -0
    outer loop
      vertex -0.303132 -2.88411 -2.5
      vertex -0.896149 -2.75806 2.5
      vertex -0.303132 -2.88411 2.5
    endloop
  endfacet
  facet normal 0.207912 0.978147 0
    outer loop
      vertex -0.896149 -2.75806 2.5
      vertex -0.303132 -2.88411 -2.5
      vertex -0.896149 -2.75806 -2.5
    endloop
  endfacet
  facet normal 0.951055 0.30902 0
    outer loop
      vertex -2.64928 -1.17954 2.5
      vertex -2.83663 -0.602943 -2.5
      vertex -2.83663 -0.602943 2.5
    endloop
  endfacet
  facet normal 0.951055 0.30902 0
    outer loop
      vertex -2.83663 -0.602943 -2.5
      vertex -2.64928 -1.17954 2.5
      vertex -2.64928 -1.17954 -2.5
    endloop
  endfacet
  facet normal 0.994522 0.104525 0
    outer loop
      vertex -2.83663 -0.602943 2.5
      vertex -2.9 0 -2.5
      vertex -2.9 0 2.5
    endloop
  endfacet
  facet normal 0.994522 0.104525 0
    outer loop
      vertex -2.9 0 -2.5
      vertex -2.83663 -0.602943 2.5
      vertex -2.83663 -0.602943 -2.5
    endloop
  endfacet
  facet normal -0.406736 0.913546 0
    outer loop
      vertex 1.45 -2.51147 -2.5
      vertex 0.896149 -2.75806 2.5
      vertex 1.45 -2.51147 2.5
    endloop
  endfacet
  facet normal -0.406736 0.913546 0
    outer loop
      vertex 0.896149 -2.75806 2.5
      vertex 1.45 -2.51147 -2.5
      vertex 0.896149 -2.75806 -2.5
    endloop
  endfacet
  facet normal -0.207912 0.978147 0
    outer loop
      vertex 0.896149 -2.75806 -2.5
      vertex 0.303132 -2.88411 2.5
      vertex 0.896149 -2.75806 2.5
    endloop
  endfacet
  facet normal -0.207912 0.978147 0
    outer loop
      vertex 0.303132 -2.88411 2.5
      vertex 0.896149 -2.75806 -2.5
      vertex 0.303132 -2.88411 -2.5
    endloop
  endfacet
  facet normal 0.406736 0.913546 -0
    outer loop
      vertex -0.896149 -2.75806 -2.5
      vertex -1.45 -2.51147 2.5
      vertex -0.896149 -2.75806 2.5
    endloop
  endfacet
  facet normal 0.406736 0.913546 0
    outer loop
      vertex -1.45 -2.51147 2.5
      vertex -0.896149 -2.75806 -2.5
      vertex -1.45 -2.51147 -2.5
    endloop
  endfacet
  facet normal 0.58778 0.809021 -0
    outer loop
      vertex -1.45 -2.51147 -2.5
      vertex -1.94048 -2.15512 2.5
      vertex -1.45 -2.51147 2.5
    endloop
  endfacet
  facet normal 0.58778 0.809021 0
    outer loop
      vertex -1.94048 -2.15512 2.5
      vertex -1.45 -2.51147 -2.5
      vertex -1.94048 -2.15512 -2.5
    endloop
  endfacet
  facet normal 0 -1 0
    outer loop
      vertex 3.94927 4.18333 2.5
      vertex 5.58501 4.18333 1.81252
      vertex 5.93016 4.18333 2.5
    endloop
  endfacet
  facet normal 0 -1 0
    outer loop
      vertex 3.62292 4.18333 1.34493
      vertex 5.58501 4.18333 1.81252
      vertex 3.94927 4.18333 2.5
    endloop
  endfacet
  facet normal 0 -1 0
    outer loop
      vertex 3.62292 4.18333 1.34493
      vertex 5.33468 4.18333 0.926506
      vertex 5.58501 4.18333 1.81252
    endloop
  endfacet
  facet normal 0 -1 0
    outer loop
      vertex 3.5 4.18333 0
      vertex 5.33468 4.18333 0.926506
      vertex 3.62292 4.18333 1.34493
    endloop
  endfacet
  facet normal 0 -1 0
    outer loop
      vertex 3.5 4.18333 0
      vertex 5.25 4.18333 0
      vertex 5.33468 4.18333 0.926506
    endloop
  endfacet
  facet normal 0 -1 0
    outer loop
      vertex 3.5 4.18333 0
      vertex 5.33468 4.18333 -0.926506
      vertex 5.25 4.18333 0
    endloop
  endfacet
  facet normal 0 -1 0
    outer loop
      vertex 3.62292 4.18333 -1.34493
      vertex 5.33468 4.18333 -0.926506
      vertex 3.5 4.18333 0
    endloop
  endfacet
  facet normal 0 -1 0
    outer loop
      vertex 3.62292 4.18333 -1.34493
      vertex 5.58501 4.18333 -1.81252
      vertex 5.33468 4.18333 -0.926506
    endloop
  endfacet
  facet normal 0 -1 0
    outer loop
      vertex 3.94927 4.18333 -2.5
      vertex 5.58501 4.18333 -1.81252
      vertex 3.62292 4.18333 -1.34493
    endloop
  endfacet
  facet normal 0 -1 -0
    outer loop
      vertex 5.58501 4.18333 -1.81252
      vertex 3.94927 4.18333 -2.5
      vertex 5.93016 4.18333 -2.5
    endloop
  endfacet
  facet normal 0.995849 0 -0.0910158
    outer loop
      vertex 3.62292 0.683332 1.34493
      vertex 3.5 4.18333 0
      vertex 3.62292 4.18333 1.34493
    endloop
  endfacet
  facet normal 0.995849 0 -0.0910158
    outer loop
      vertex 3.5 4.18333 0
      vertex 3.62292 0.683332 1.34493
      vertex 3.5 0.683332 0
    endloop
  endfacet
  facet normal -0.995849 0 0.0910178
    outer loop
      vertex 5.25 0.683332 0
      vertex 5.33468 4.18333 0.926506
      vertex 5.25 4.18333 0
    endloop
  endfacet
  facet normal -0.995849 0 0.0910178
    outer loop
      vertex 5.33468 4.18333 0.926506
      vertex 5.25 0.683332 0
      vertex 5.33468 0.683332 0.926506
    endloop
  endfacet
  facet normal 0.962327 0 -0.271893
    outer loop
      vertex 3.94927 0.683332 2.5
      vertex 3.62292 4.18333 1.34493
      vertex 3.94927 4.18333 2.5
    endloop
  endfacet
  facet normal 0.962327 0 -0.271893
    outer loop
      vertex 3.62292 4.18333 1.34493
      vertex 3.94927 0.683332 2.5
      vertex 3.62292 0.683332 1.34493
    endloop
  endfacet
  facet normal -0.962328 0 0.271891
    outer loop
      vertex 5.33468 0.683332 0.926506
      vertex 5.58501 4.18333 1.81252
      vertex 5.33468 4.18333 0.926506
    endloop
  endfacet
  facet normal -0.962328 0 0.271891
    outer loop
      vertex 5.58501 4.18333 1.81252
      vertex 5.33468 0.683332 0.926506
      vertex 5.58501 0.683332 1.81252
    endloop
  endfacet
  facet normal -0.893693 0 0.448679
    outer loop
      vertex 5.58501 0.683332 1.81252
      vertex 5.93016 4.18333 2.5
      vertex 5.58501 4.18333 1.81252
    endloop
  endfacet
  facet normal -0.893693 0 0.448679
    outer loop
      vertex 5.93016 4.18333 2.5
      vertex 5.58501 0.683332 1.81252
      vertex 5.93016 0.683332 2.5
    endloop
  endfacet
  facet normal -0.893693 0 -0.448679
    outer loop
      vertex 5.93016 0.683332 -2.5
      vertex 5.58501 4.18333 -1.81252
      vertex 5.93016 4.18333 -2.5
    endloop
  endfacet
  facet normal -0.893693 -0 -0.448679
    outer loop
      vertex 5.58501 4.18333 -1.81252
      vertex 5.93016 0.683332 -2.5
      vertex 5.58501 0.683332 -1.81252
    endloop
  endfacet
  facet normal 0.962327 -0 0.271893
    outer loop
      vertex 3.62292 0.683332 -1.34493
      vertex 3.94927 4.18333 -2.5
      vertex 3.62292 4.18333 -1.34493
    endloop
  endfacet
  facet normal 0.962327 0 0.271893
    outer loop
      vertex 3.94927 4.18333 -2.5
      vertex 3.62292 0.683332 -1.34493
      vertex 3.94927 0.683332 -2.5
    endloop
  endfacet
  facet normal -0.962328 0 -0.271891
    outer loop
      vertex 5.58501 0.683332 -1.81252
      vertex 5.33468 4.18333 -0.926506
      vertex 5.58501 4.18333 -1.81252
    endloop
  endfacet
  facet normal -0.962328 -0 -0.271891
    outer loop
      vertex 5.33468 4.18333 -0.926506
      vertex 5.58501 0.683332 -1.81252
      vertex 5.33468 0.683332 -0.926506
    endloop
  endfacet
  facet normal 0.995849 -0 0.0910158
    outer loop
      vertex 3.5 0.683332 0
      vertex 3.62292 4.18333 -1.34493
      vertex 3.5 4.18333 0
    endloop
  endfacet
  facet normal 0.995849 0 0.0910158
    outer loop
      vertex 3.62292 4.18333 -1.34493
      vertex 3.5 0.683332 0
      vertex 3.62292 0.683332 -1.34493
    endloop
  endfacet
  facet normal 0 1 -0
    outer loop
      vertex 5.58501 0.683332 1.81252
      vertex 3.94927 0.683332 2.5
      vertex 5.93016 0.683332 2.5
    endloop
  endfacet
  facet normal 0 1 0
    outer loop
      vertex 5.58501 0.683332 1.81252
      vertex 3.62292 0.683332 1.34493
      vertex 3.94927 0.683332 2.5
    endloop
  endfacet
  facet normal 0 1 -0
    outer loop
      vertex 5.33468 0.683332 0.926506
      vertex 3.62292 0.683332 1.34493
      vertex 5.58501 0.683332 1.81252
    endloop
  endfacet
  facet normal 0 1 0
    outer loop
      vertex 3.5 0.683332 0
      vertex 5.33468 0.683332 0.926506
      vertex 5.25 0.683332 0
    endloop
  endfacet
  facet normal 0 1 0
    outer loop
      vertex 5.33468 0.683332 0.926506
      vertex 3.5 0.683332 0
      vertex 3.62292 0.683332 1.34493
    endloop
  endfacet
  facet normal 0 1 0
    outer loop
      vertex 5.33468 0.683332 -0.926506
      vertex 3.5 0.683332 0
      vertex 5.25 0.683332 0
    endloop
  endfacet
  facet normal 0 1 0
    outer loop
      vertex 5.33468 0.683332 -0.926506
      vertex 3.62292 0.683332 -1.34493
      vertex 3.5 0.683332 0
    endloop
  endfacet
  facet normal 0 1 0
    outer loop
      vertex 5.58501 0.683332 -1.81252
      vertex 3.62292 0.683332 -1.34493
      vertex 5.33468 0.683332 -0.926506
    endloop
  endfacet
  facet normal 0 1 0
    outer loop
      vertex 3.94927 0.683332 -2.5
      vertex 5.58501 0.683332 -1.81252
      vertex 5.93016 0.683332 -2.5
    endloop
  endfacet
  facet normal 0 1 0
    outer loop
      vertex 5.58501 0.683332 -1.81252
      vertex 3.94927 0.683332 -2.5
      vertex 3.62292 0.683332 -1.34493
    endloop
  endfacet
  facet normal -0.995849 0 -0.0910178
    outer loop
      vertex 5.33468 0.683332 -0.926506
      vertex 5.25 4.18333 0
      vertex 5.33468 4.18333 -0.926506
    endloop
  endfacet
  facet normal -0.995849 -0 -0.0910178
    outer loop
      vertex 5.25 4.18333 0
      vertex 5.33468 0.683332 -0.926506
      vertex 5.25 0.683332 0
    endloop
  endfacet
endsolid OpenSCAD_Model
