solid OpenSCAD_Model
  facet normal -0 0 1
    outer loop
      vertex 1.99172 239.329 17.25
      vertex 2.6 228 17.25
      vertex 2.6 241 17.25
    endloop
  endfacet
  facet normal 0 0 1
    outer loop
      vertex 1.99172 239.329 17.25
      vertex 1.99172 229.671 17.25
      vertex 2.6 228 17.25
    endloop
  endfacet
  facet normal -0 0 1
    outer loop
      vertex 0.451485 238.439 17.25
      vertex 1.99172 229.671 17.25
      vertex 1.99172 239.329 17.25
    endloop
  endfacet
  facet normal 0 0 1
    outer loop
      vertex 0.451485 238.439 17.25
      vertex 0.451485 230.561 17.25
      vertex 1.99172 229.671 17.25
    endloop
  endfacet
  facet normal 0 0 1
    outer loop
      vertex -1.3 238.748 17.25
      vertex 0.451485 230.561 17.25
      vertex 0.451485 238.439 17.25
    endloop
  endfacet
  facet normal 0 0 1
    outer loop
      vertex -1.3 238.748 17.25
      vertex -1.3 230.252 17.25
      vertex 0.451485 230.561 17.25
    endloop
  endfacet
  facet normal 0 0 1
    outer loop
      vertex -2.4432 240.111 17.25
      vertex -1.3 230.252 17.25
      vertex -1.3 238.748 17.25
    endloop
  endfacet
  facet normal 0 0 1
    outer loop
      vertex -1.3 230.252 17.25
      vertex -2.4432 240.111 17.25
      vertex -2.4432 228.889 17.25
    endloop
  endfacet
  facet normal 0 0 1
    outer loop
      vertex 3.34619 249.335 17.25
      vertex 2.6 241 17.25
      vertex 3.34619 220.665 17.25
    endloop
  endfacet
  facet normal 0 0 1
    outer loop
      vertex 3.34619 249.335 17.25
      vertex 1.99172 242.671 17.25
      vertex 2.6 241 17.25
    endloop
  endfacet
  facet normal 0 0 1
    outer loop
      vertex 0.451485 243.561 17.25
      vertex 3.34619 249.335 17.25
      vertex 1.91368 249.836 17.25
    endloop
  endfacet
  facet normal 0 0 1
    outer loop
      vertex 3.34619 249.335 17.25
      vertex 0.451485 243.561 17.25
      vertex 1.99172 242.671 17.25
    endloop
  endfacet
  facet normal 0 0 1
    outer loop
      vertex 0 250.052 17.25
      vertex 0.451485 243.561 17.25
      vertex 1.91368 249.836 17.25
    endloop
  endfacet
  facet normal -0 0 1
    outer loop
      vertex -1.91368 249.836 17.25
      vertex 0.451485 243.561 17.25
      vertex 0 250.052 17.25
    endloop
  endfacet
  facet normal 0 0 1
    outer loop
      vertex 0.451485 243.561 17.25
      vertex -1.91368 249.836 17.25
      vertex -1.3 243.252 17.25
    endloop
  endfacet
  facet normal -0 0 1
    outer loop
      vertex -3.34619 249.335 17.25
      vertex -1.3 243.252 17.25
      vertex -1.91368 249.836 17.25
    endloop
  endfacet
  facet normal 0 0 1
    outer loop
      vertex -3.34619 249.335 17.25
      vertex -2.4432 240.111 17.25
      vertex -2.4432 241.889 17.25
    endloop
  endfacet
  facet normal 0 0 1
    outer loop
      vertex -3.34619 220.665 17.25
      vertex -2.4432 240.111 17.25
      vertex -3.34619 249.335 17.25
    endloop
  endfacet
  facet normal 0 0 1
    outer loop
      vertex -2.4432 240.111 17.25
      vertex -3.34619 220.665 17.25
      vertex -2.4432 228.889 17.25
    endloop
  endfacet
  facet normal 0 0 1
    outer loop
      vertex -1.3 243.252 17.25
      vertex -3.34619 249.335 17.25
      vertex -2.4432 241.889 17.25
    endloop
  endfacet
  facet normal -0 0 1
    outer loop
      vertex 2.6 228 17.25
      vertex 3.34619 220.665 17.25
      vertex 2.6 241 17.25
    endloop
  endfacet
  facet normal -0 0 1
    outer loop
      vertex 1.99172 226.329 17.25
      vertex 3.34619 220.665 17.25
      vertex 2.6 228 17.25
    endloop
  endfacet
  facet normal -0 0 1
    outer loop
      vertex 0.451485 225.439 17.25
      vertex 3.34619 220.665 17.25
      vertex 1.99172 226.329 17.25
    endloop
  endfacet
  facet normal 0 0 1
    outer loop
      vertex 3.34619 220.665 17.25
      vertex 0.451485 225.439 17.25
      vertex 1.91368 220.164 17.25
    endloop
  endfacet
  facet normal 0 0 1
    outer loop
      vertex 0.451485 225.439 17.25
      vertex 0 219.948 17.25
      vertex 1.91368 220.164 17.25
    endloop
  endfacet
  facet normal 0 0 1
    outer loop
      vertex -1.91368 220.164 17.25
      vertex 0.451485 225.439 17.25
      vertex -1.3 225.748 17.25
    endloop
  endfacet
  facet normal 0 0 1
    outer loop
      vertex 0.451485 225.439 17.25
      vertex -1.91368 220.164 17.25
      vertex 0 219.948 17.25
    endloop
  endfacet
  facet normal 0 0 1
    outer loop
      vertex -3.34619 220.665 17.25
      vertex -1.3 225.748 17.25
      vertex -2.4432 227.111 17.25
    endloop
  endfacet
  facet normal 0 0 1
    outer loop
      vertex -1.3 225.748 17.25
      vertex -3.34619 220.665 17.25
      vertex -1.91368 220.164 17.25
    endloop
  endfacet
  facet normal 0 0 1
    outer loop
      vertex -2.4432 228.889 17.25
      vertex -3.34619 220.665 17.25
      vertex -2.4432 227.111 17.25
    endloop
  endfacet
  facet normal 0 0 -1
    outer loop
      vertex 0 219.948 14.75
      vertex -0.458076 220 14.75
      vertex 0.458076 220 14.75
    endloop
  endfacet
  facet normal -0.330128 0.943936 0
    outer loop
      vertex -1.91368 249.836 16
      vertex -3.34619 249.335 17.25
      vertex -1.91368 249.836 17.25
    endloop
  endfacet
  facet normal -0.330257 0.943891 -0.000165602
    outer loop
      vertex -3.7314 249.2 16
      vertex -3.34619 249.335 17.25
      vertex -1.91368 249.836 16
    endloop
  endfacet
  facet normal -0.330736 0.943723 0
    outer loop
      vertex -3.34619 249.335 17.25
      vertex -3.7314 249.2 16
      vertex -3.7314 249.2 16.8648
    endloop
  endfacet
  facet normal 0.112159 0.99369 -0
    outer loop
      vertex 1.91368 249.836 16
      vertex 0 250.052 17.25
      vertex 1.91368 249.836 17.25
    endloop
  endfacet
  facet normal 0.112159 0.99369 0
    outer loop
      vertex 0 250.052 17.25
      vertex 1.91368 249.836 16
      vertex 0 250.052 16
    endloop
  endfacet
  facet normal -0.531763 0.846893 0
    outer loop
      vertex -4.59619 248.657 16
      vertex -3.7314 249.2 16.8648
      vertex -3.7314 249.2 16
    endloop
  endfacet
  facet normal 0 0 -1
    outer loop
      vertex -3.7314 249.2 16
      vertex -5 248.403 16
      vertex -4.59619 248.657 16
    endloop
  endfacet
  facet normal -0.112159 0.99369 0
    outer loop
      vertex 0 250.052 16
      vertex -1.91368 249.836 17.25
      vertex 0 250.052 17.25
    endloop
  endfacet
  facet normal -0.112159 0.99369 0
    outer loop
      vertex -1.91368 249.836 17.25
      vertex 0 250.052 16
      vertex -1.91368 249.836 16
    endloop
  endfacet
  facet normal 0.330736 0.943723 -0
    outer loop
      vertex 3.7314 249.2 16
      vertex 3.34619 249.335 17.25
      vertex 3.7314 249.2 16.8648
    endloop
  endfacet
  facet normal 0.330257 0.943891 -0.000165602
    outer loop
      vertex 3.34619 249.335 17.25
      vertex 3.7314 249.2 16
      vertex 1.91368 249.836 16
    endloop
  endfacet
  facet normal 0.330128 0.943936 0
    outer loop
      vertex 3.34619 249.335 17.25
      vertex 1.91368 249.836 16
      vertex 1.91368 249.836 17.25
    endloop
  endfacet
  facet normal 0.112159 -0.99369 -0.000235511
    outer loop
      vertex 0 219.948 17.25
      vertex 0.458076 220 16
      vertex 1.91368 220.164 17.25
    endloop
  endfacet
  facet normal 0.112794 -0.993618 0
    outer loop
      vertex 0 219.948 14.75
      vertex 0.458076 220 16
      vertex 0 219.948 17.25
    endloop
  endfacet
  facet normal 0.112794 -0.993618 0
    outer loop
      vertex 0.458076 220 16
      vertex 0 219.948 14.75
      vertex 0.458076 220 14.75
    endloop
  endfacet
  facet normal 0.11196 -0.993713 0
    outer loop
      vertex 1.91368 220.164 17.25
      vertex 0.458076 220 16
      vertex 1.91368 220.164 16
    endloop
  endfacet
  facet normal 0.531763 -0.846893 0
    outer loop
      vertex 3.7314 220.8 16.8648
      vertex 3.7314 220.8 16
      vertex 4.59619 221.343 16
    endloop
  endfacet
  facet normal -0 0 -1
    outer loop
      vertex 4.59619 221.343 16
      vertex 3.7314 220.8 16
      vertex 5 221.597 16
    endloop
  endfacet
  facet normal 0.531763 0.846893 0
    outer loop
      vertex 3.7314 249.2 16.8648
      vertex 4.59619 248.657 16
      vertex 3.7314 249.2 16
    endloop
  endfacet
  facet normal -0 -0 -1
    outer loop
      vertex 4.59619 248.657 16
      vertex 5 248.403 16
      vertex 3.7314 249.2 16
    endloop
  endfacet
  facet normal -0.531763 -0.846893 0
    outer loop
      vertex -4.59619 221.343 16
      vertex -3.7314 220.8 16
      vertex -3.7314 220.8 16.8648
    endloop
  endfacet
  facet normal 0 0 -1
    outer loop
      vertex -4.59619 221.343 16
      vertex -5 221.597 16
      vertex -3.7314 220.8 16
    endloop
  endfacet
  facet normal -0.11196 -0.993713 0
    outer loop
      vertex -0.458076 220 16
      vertex -1.91368 220.164 17.25
      vertex -1.91368 220.164 16
    endloop
  endfacet
  facet normal -0.112159 -0.99369 -0.000235511
    outer loop
      vertex -1.91368 220.164 17.25
      vertex -0.458076 220 16
      vertex 0 219.948 17.25
    endloop
  endfacet
  facet normal -0.112794 -0.993618 0
    outer loop
      vertex 0 219.948 14.75
      vertex -0.458076 220 16
      vertex -0.458076 220 14.75
    endloop
  endfacet
  facet normal -0.112794 -0.993618 0
    outer loop
      vertex -0.458076 220 16
      vertex 0 219.948 14.75
      vertex 0 219.948 17.25
    endloop
  endfacet
  facet normal 0.330128 -0.943936 0
    outer loop
      vertex 1.91368 220.164 16
      vertex 3.34619 220.665 17.25
      vertex 1.91368 220.164 17.25
    endloop
  endfacet
  facet normal 0.330257 -0.943891 -0.000165602
    outer loop
      vertex 3.7314 220.8 16
      vertex 3.34619 220.665 17.25
      vertex 1.91368 220.164 16
    endloop
  endfacet
  facet normal 0.330736 -0.943723 0
    outer loop
      vertex 3.34619 220.665 17.25
      vertex 3.7314 220.8 16
      vertex 3.7314 220.8 16.8648
    endloop
  endfacet
  facet normal -0.330736 -0.943723 0
    outer loop
      vertex -3.7314 220.8 16
      vertex -3.34619 220.665 17.25
      vertex -3.7314 220.8 16.8648
    endloop
  endfacet
  facet normal -0.330257 -0.943891 -0.000165602
    outer loop
      vertex -3.34619 220.665 17.25
      vertex -3.7314 220.8 16
      vertex -1.91368 220.164 16
    endloop
  endfacet
  facet normal -0.330128 -0.943936 0
    outer loop
      vertex -3.34619 220.665 17.25
      vertex -1.91368 220.164 16
      vertex -1.91368 220.164 17.25
    endloop
  endfacet
  facet normal -0.707081 -9.56387e-05 0.707133
    outer loop
      vertex -4.59619 248.657 16
      vertex -3.34619 249.335 17.25
      vertex -3.7314 249.2 16.8648
    endloop
  endfacet
  facet normal -0.707107 0 0.707107
    outer loop
      vertex -4.59619 221.343 16
      vertex -3.34619 249.335 17.25
      vertex -4.59619 248.657 16
    endloop
  endfacet
  facet normal -0.707081 9.56387e-05 0.707133
    outer loop
      vertex -3.34619 220.665 17.25
      vertex -4.59619 221.343 16
      vertex -3.7314 220.8 16.8648
    endloop
  endfacet
  facet normal -0.707107 0 0.707107
    outer loop
      vertex -4.59619 221.343 16
      vertex -3.34619 220.665 17.25
      vertex -3.34619 249.335 17.25
    endloop
  endfacet
  facet normal 0.707081 -9.56387e-05 0.707133
    outer loop
      vertex 3.34619 249.335 17.25
      vertex 4.59619 248.657 16
      vertex 3.7314 249.2 16.8648
    endloop
  endfacet
  facet normal 0.707107 0 0.707107
    outer loop
      vertex 3.34619 249.335 17.25
      vertex 4.59619 221.343 16
      vertex 4.59619 248.657 16
    endloop
  endfacet
  facet normal 0.707107 -0 0.707107
    outer loop
      vertex 3.34619 220.665 17.25
      vertex 4.59619 221.343 16
      vertex 3.34619 249.335 17.25
    endloop
  endfacet
  facet normal 0.707081 9.56387e-05 0.707133
    outer loop
      vertex 4.59619 221.343 16
      vertex 3.34619 220.665 17.25
      vertex 3.7314 220.8 16.8648
    endloop
  endfacet
  facet normal 0 0 1
    outer loop
      vertex 4.59619 248.657 16
      vertex 5 221.597 16
      vertex 5 248.403 16
    endloop
  endfacet
  facet normal 0 0 1
    outer loop
      vertex 5 221.597 16
      vertex 4.59619 248.657 16
      vertex 4.59619 221.343 16
    endloop
  endfacet
  facet normal -0 0 1
    outer loop
      vertex -5 248.403 16
      vertex -4.59619 221.343 16
      vertex -4.59619 248.657 16
    endloop
  endfacet
  facet normal 0 0 1
    outer loop
      vertex -4.59619 221.343 16
      vertex -5 248.403 16
      vertex -5 221.597 16
    endloop
  endfacet
  facet normal -1 0 0
    outer loop
      vertex -10 220 10
      vertex -10 250.084 16
      vertex -10 250.084 10
    endloop
  endfacet
  facet normal -1 -0 0
    outer loop
      vertex -10 250.084 16
      vertex -10 220 10
      vertex -10 220 16
    endloop
  endfacet
  facet normal 0 0 1
    outer loop
      vertex 3.7314 249.2 16
      vertex 10 250.084 16
      vertex 4.48075 257.21 16
    endloop
  endfacet
  facet normal 0 0 1
    outer loop
      vertex 10 250.084 16
      vertex 3.7314 249.2 16
      vertex 5 248.403 16
    endloop
  endfacet
  facet normal 0 0 1
    outer loop
      vertex 4.48075 257.21 16
      vertex 1.91368 249.836 16
      vertex 3.7314 249.2 16
    endloop
  endfacet
  facet normal -0 0 1
    outer loop
      vertex 1.51566 256.579 16
      vertex 1.91368 249.836 16
      vertex 4.48075 257.21 16
    endloop
  endfacet
  facet normal 0 0 1
    outer loop
      vertex 1.51566 256.579 16
      vertex 0 250.052 16
      vertex 1.91368 249.836 16
    endloop
  endfacet
  facet normal -0 0 1
    outer loop
      vertex -1.51566 256.579 16
      vertex 0 250.052 16
      vertex 1.51566 256.579 16
    endloop
  endfacet
  facet normal 0 0 1
    outer loop
      vertex -1.51566 256.579 16
      vertex -1.91368 249.836 16
      vertex 0 250.052 16
    endloop
  endfacet
  facet normal 0 0 1
    outer loop
      vertex -4.48075 257.21 16
      vertex -1.91368 249.836 16
      vertex -1.51566 256.579 16
    endloop
  endfacet
  facet normal 0 0 1
    outer loop
      vertex -1.91368 249.836 16
      vertex -4.48075 257.21 16
      vertex -3.7314 249.2 16
    endloop
  endfacet
  facet normal -0 0 1
    outer loop
      vertex -10 250.084 16
      vertex -3.7314 249.2 16
      vertex -4.48075 257.21 16
    endloop
  endfacet
  facet normal 0 0 1
    outer loop
      vertex -3.7314 249.2 16
      vertex -10 250.084 16
      vertex -5 248.403 16
    endloop
  endfacet
  facet normal 0 0 1
    outer loop
      vertex -10 250.084 16
      vertex -4.48075 257.21 16
      vertex -7.25 258.443 16
    endloop
  endfacet
  facet normal 0 0 1
    outer loop
      vertex -12.8 256.5 16
      vertex -7.25 258.443 16
      vertex -9.70239 260.224 16
    endloop
  endfacet
  facet normal 0 0 1
    outer loop
      vertex -10 220 16
      vertex -5 248.403 16
      vertex -10 250.084 16
    endloop
  endfacet
  facet normal 0 0 1
    outer loop
      vertex -1.91368 220.164 16
      vertex -10 220 16
      vertex -0.458076 220 16
    endloop
  endfacet
  facet normal 0 0 1
    outer loop
      vertex -3.7314 220.8 16
      vertex -10 220 16
      vertex -1.91368 220.164 16
    endloop
  endfacet
  facet normal 0 0 1
    outer loop
      vertex -5 221.597 16
      vertex -10 220 16
      vertex -3.7314 220.8 16
    endloop
  endfacet
  facet normal 0 0 1
    outer loop
      vertex -5 248.403 16
      vertex -10 220 16
      vertex -5 221.597 16
    endloop
  endfacet
  facet normal 0 0 1
    outer loop
      vertex -15.35 257.972 16
      vertex -11.7307 262.477 16
      vertex -13.2464 265.102 16
    endloop
  endfacet
  facet normal 0 0 1
    outer loop
      vertex -11.7307 262.477 16
      vertex -13.65 257.972 16
      vertex -12.8 256.5 16
    endloop
  endfacet
  facet normal 0 0 1
    outer loop
      vertex -21 255.5 16
      vertex -13.2464 265.102 16
      vertex -14.1831 267.985 16
    endloop
  endfacet
  facet normal 0 0 1
    outer loop
      vertex -21 255.5 16
      vertex -14.1831 267.985 16
      vertex -14.5 271 16
    endloop
  endfacet
  facet normal 0 0 1
    outer loop
      vertex -11.7307 262.477 16
      vertex -15.35 257.972 16
      vertex -13.65 257.972 16
    endloop
  endfacet
  facet normal 0 0 1
    outer loop
      vertex -14.1831 274.015 16
      vertex -21 286.5 16
      vertex -14.5 271 16
    endloop
  endfacet
  facet normal 0 0 1
    outer loop
      vertex -21 286.5 16
      vertex -15.35 284.028 16
      vertex -17.35 286.028 16
    endloop
  endfacet
  facet normal 0 0 1
    outer loop
      vertex -21 255.5 16
      vertex -14.5 271 16
      vertex -21 286.5 16
    endloop
  endfacet
  facet normal -0 0 1
    outer loop
      vertex -21 286.5 16
      vertex -17.35 286.028 16
      vertex -18.2 287.5 16
    endloop
  endfacet
  facet normal 0 0 1
    outer loop
      vertex -13.2464 265.102 16
      vertex -21 255.5 16
      vertex -15.35 257.972 16
    endloop
  endfacet
  facet normal 0 0 1
    outer loop
      vertex -12.8 256.5 16
      vertex -9.70239 260.224 16
      vertex -11.7307 262.477 16
    endloop
  endfacet
  facet normal 0 0 1
    outer loop
      vertex -7.25 258.443 16
      vertex -12.8 256.5 16
      vertex -10 250.084 16
    endloop
  endfacet
  facet normal -0 0 1
    outer loop
      vertex -13.65 255.028 16
      vertex -10 250.084 16
      vertex -12.8 256.5 16
    endloop
  endfacet
  facet normal -0 0 1
    outer loop
      vertex -15.65 253.028 16
      vertex -10 250.084 16
      vertex -13.65 255.028 16
    endloop
  endfacet
  facet normal 0 0 1
    outer loop
      vertex -15.65 253.028 16
      vertex -16.4551 250.084 16
      vertex -10 250.084 16
    endloop
  endfacet
  facet normal -0 0 1
    outer loop
      vertex -17.35 253.028 16
      vertex -16.4551 250.084 16
      vertex -15.65 253.028 16
    endloop
  endfacet
  facet normal 0 0 1
    outer loop
      vertex -19.7132 251.965 16
      vertex -17.35 253.028 16
      vertex -18.2 254.5 16
    endloop
  endfacet
  facet normal 0 0 1
    outer loop
      vertex -17.35 253.028 16
      vertex -18.25 250.737 16
      vertex -16.4551 250.084 16
    endloop
  endfacet
  facet normal 0 0 1
    outer loop
      vertex -15.35 257.972 16
      vertex -21 255.5 16
      vertex -17.35 255.972 16
    endloop
  endfacet
  facet normal 0 0 1
    outer loop
      vertex -21 286.5 16
      vertex -18.25 291.263 16
      vertex -19.7132 290.035 16
    endloop
  endfacet
  facet normal 0 0 1
    outer loop
      vertex -17.35 255.972 16
      vertex -21 255.5 16
      vertex -18.2 254.5 16
    endloop
  endfacet
  facet normal 0 0 1
    outer loop
      vertex -21 286.5 16
      vertex -19.7132 290.035 16
      vertex -20.6683 288.381 16
    endloop
  endfacet
  facet normal 0 -0 1
    outer loop
      vertex -20.6683 253.619 16
      vertex -18.2 254.5 16
      vertex -21 255.5 16
    endloop
  endfacet
  facet normal 0 0 1
    outer loop
      vertex -17.35 253.028 16
      vertex -19.7132 251.965 16
      vertex -18.25 250.737 16
    endloop
  endfacet
  facet normal 0 0 1
    outer loop
      vertex -18.2 254.5 16
      vertex -20.6683 253.619 16
      vertex -19.7132 251.965 16
    endloop
  endfacet
  facet normal 0 0 1
    outer loop
      vertex -9.70239 281.776 16
      vertex -13.65 284.028 16
      vertex -11.7307 279.523 16
    endloop
  endfacet
  facet normal -0 0 1
    outer loop
      vertex -15.35 284.028 16
      vertex -11.7307 279.523 16
      vertex -13.65 284.028 16
    endloop
  endfacet
  facet normal 0 0 1
    outer loop
      vertex -11.7307 279.523 16
      vertex -15.35 284.028 16
      vertex -13.2464 276.898 16
    endloop
  endfacet
  facet normal 0 0 1
    outer loop
      vertex -21 286.5 16
      vertex -13.2464 276.898 16
      vertex -15.35 284.028 16
    endloop
  endfacet
  facet normal 0 0 1
    outer loop
      vertex -13.2464 276.898 16
      vertex -21 286.5 16
      vertex -14.1831 274.015 16
    endloop
  endfacet
  facet normal 0 0 1
    outer loop
      vertex 21 286.5 16
      vertex 14.5 271 16
      vertex 21 255.5 16
    endloop
  endfacet
  facet normal -0 0 1
    outer loop
      vertex 14.1831 267.985 16
      vertex 21 255.5 16
      vertex 14.5 271 16
    endloop
  endfacet
  facet normal 0 0 1
    outer loop
      vertex 14.1831 274.015 16
      vertex 17.35 286.028 16
      vertex 15.35 284.028 16
    endloop
  endfacet
  facet normal 0 0 1
    outer loop
      vertex 21 255.5 16
      vertex 17.35 255.972 16
      vertex 18.2 254.5 16
    endloop
  endfacet
  facet normal -0 0 1
    outer loop
      vertex 13.2464 265.102 16
      vertex 21 255.5 16
      vertex 14.1831 267.985 16
    endloop
  endfacet
  facet normal 0 0 1
    outer loop
      vertex 17.35 286.028 16
      vertex 14.1831 274.015 16
      vertex 14.5 271 16
    endloop
  endfacet
  facet normal 0 0 1
    outer loop
      vertex 11.7307 279.523 16
      vertex 15.35 284.028 16
      vertex 13.65 284.028 16
    endloop
  endfacet
  facet normal 0 0 1
    outer loop
      vertex 15.35 284.028 16
      vertex 13.2464 276.898 16
      vertex 14.1831 274.015 16
    endloop
  endfacet
  facet normal 0 0 1
    outer loop
      vertex 9.70239 281.776 16
      vertex 13.65 284.028 16
      vertex 12.8 285.5 16
    endloop
  endfacet
  facet normal 0 0 1
    outer loop
      vertex 15.35 284.028 16
      vertex 11.7307 279.523 16
      vertex 13.2464 276.898 16
    endloop
  endfacet
  facet normal -0 0 1
    outer loop
      vertex 18.2 287.5 16
      vertex 21 286.5 16
      vertex 20.6683 288.381 16
    endloop
  endfacet
  facet normal 0 0 1
    outer loop
      vertex 17.35 286.028 16
      vertex 21 286.5 16
      vertex 18.2 287.5 16
    endloop
  endfacet
  facet normal 0 0 1
    outer loop
      vertex 18.2 287.5 16
      vertex 20.6683 288.381 16
      vertex 19.7132 290.035 16
    endloop
  endfacet
  facet normal 0 0 1
    outer loop
      vertex 14.5 271 16
      vertex 21 286.5 16
      vertex 17.35 286.028 16
    endloop
  endfacet
  facet normal 0 0 1
    outer loop
      vertex 17.35 288.972 16
      vertex 19.7132 290.035 16
      vertex 18.25 291.263 16
    endloop
  endfacet
  facet normal 0 0 1
    outer loop
      vertex 21 255.5 16
      vertex 18.2 254.5 16
      vertex 20.6683 253.619 16
    endloop
  endfacet
  facet normal 0 0 1
    outer loop
      vertex 20.6683 253.619 16
      vertex 18.2 254.5 16
      vertex 19.7132 251.965 16
    endloop
  endfacet
  facet normal 0 0 1
    outer loop
      vertex 19.7132 290.035 16
      vertex 17.35 288.972 16
      vertex 18.2 287.5 16
    endloop
  endfacet
  facet normal 0 0 1
    outer loop
      vertex 16.4551 291.916 16
      vertex 17.35 288.972 16
      vertex 18.25 291.263 16
    endloop
  endfacet
  facet normal 0 0 1
    outer loop
      vertex 16.4551 291.916 16
      vertex 15.65 288.972 16
      vertex 17.35 288.972 16
    endloop
  endfacet
  facet normal 0 0 1
    outer loop
      vertex 16.4551 291.916 16
      vertex 13.65 286.972 16
      vertex 15.65 288.972 16
    endloop
  endfacet
  facet normal 0 0 1
    outer loop
      vertex 4.48075 284.79 16
      vertex 13.65 286.972 16
      vertex 16.4551 291.916 16
    endloop
  endfacet
  facet normal 0 0 1
    outer loop
      vertex 13.65 284.028 16
      vertex 9.70239 281.776 16
      vertex 11.7307 279.523 16
    endloop
  endfacet
  facet normal 0 -0 1
    outer loop
      vertex 7.25 283.557 16
      vertex 13.65 286.972 16
      vertex 4.48075 284.79 16
    endloop
  endfacet
  facet normal 0 0 1
    outer loop
      vertex 12.8 285.5 16
      vertex 7.25 283.557 16
      vertex 9.70239 281.776 16
    endloop
  endfacet
  facet normal 0 0 1
    outer loop
      vertex 13.65 286.972 16
      vertex 7.25 283.557 16
      vertex 12.8 285.5 16
    endloop
  endfacet
  facet normal 0 0 1
    outer loop
      vertex 16.4551 291.916 16
      vertex 1.51566 285.421 16
      vertex 4.48075 284.79 16
    endloop
  endfacet
  facet normal 0 0 1
    outer loop
      vertex 16.4551 291.916 16
      vertex -1.51566 285.421 16
      vertex 1.51566 285.421 16
    endloop
  endfacet
  facet normal -0 0 1
    outer loop
      vertex -16.4551 291.916 16
      vertex -1.51566 285.421 16
      vertex 16.4551 291.916 16
    endloop
  endfacet
  facet normal -0 0 1
    outer loop
      vertex -13.65 284.028 16
      vertex -9.70239 281.776 16
      vertex -12.8 285.5 16
    endloop
  endfacet
  facet normal 0 0 1
    outer loop
      vertex -7.25 283.557 16
      vertex -12.8 285.5 16
      vertex -9.70239 281.776 16
    endloop
  endfacet
  facet normal 0 0 1
    outer loop
      vertex -13.65 286.972 16
      vertex -7.25 283.557 16
      vertex -4.48075 284.79 16
    endloop
  endfacet
  facet normal 0 0 1
    outer loop
      vertex -1.51566 285.421 16
      vertex -16.4551 291.916 16
      vertex -4.48075 284.79 16
    endloop
  endfacet
  facet normal 0 0 1
    outer loop
      vertex -7.25 283.557 16
      vertex -13.65 286.972 16
      vertex -12.8 285.5 16
    endloop
  endfacet
  facet normal 0 0 1
    outer loop
      vertex -4.48075 284.79 16
      vertex -16.4551 291.916 16
      vertex -13.65 286.972 16
    endloop
  endfacet
  facet normal 0 0 1
    outer loop
      vertex -13.65 286.972 16
      vertex -16.4551 291.916 16
      vertex -15.65 288.972 16
    endloop
  endfacet
  facet normal 0 0 1
    outer loop
      vertex -16.4551 291.916 16
      vertex -17.35 288.972 16
      vertex -15.65 288.972 16
    endloop
  endfacet
  facet normal -0 0 1
    outer loop
      vertex -18.25 291.263 16
      vertex -17.35 288.972 16
      vertex -16.4551 291.916 16
    endloop
  endfacet
  facet normal 0 0 1
    outer loop
      vertex -21 286.5 16
      vertex -18.2 287.5 16
      vertex -18.25 291.263 16
    endloop
  endfacet
  facet normal 0 0 1
    outer loop
      vertex -17.35 288.972 16
      vertex -18.25 291.263 16
      vertex -18.2 287.5 16
    endloop
  endfacet
  facet normal -0 0 1
    outer loop
      vertex 17.35 253.028 16
      vertex 19.7132 251.965 16
      vertex 18.2 254.5 16
    endloop
  endfacet
  facet normal 0 0 1
    outer loop
      vertex 19.7132 251.965 16
      vertex 17.35 253.028 16
      vertex 18.25 250.737 16
    endloop
  endfacet
  facet normal 0 0 1
    outer loop
      vertex 17.35 253.028 16
      vertex 16.4551 250.084 16
      vertex 18.25 250.737 16
    endloop
  endfacet
  facet normal -0 0 1
    outer loop
      vertex 15.65 253.028 16
      vertex 16.4551 250.084 16
      vertex 17.35 253.028 16
    endloop
  endfacet
  facet normal 0 0 1
    outer loop
      vertex 10 250.084 16
      vertex 15.65 253.028 16
      vertex 13.65 255.028 16
    endloop
  endfacet
  facet normal 0 0 1
    outer loop
      vertex 10 250.084 16
      vertex 13.65 255.028 16
      vertex 12.8 256.5 16
    endloop
  endfacet
  facet normal 0 0 1
    outer loop
      vertex 15.65 253.028 16
      vertex 10 250.084 16
      vertex 16.4551 250.084 16
    endloop
  endfacet
  facet normal 0 0 1
    outer loop
      vertex 13.65 257.972 16
      vertex 9.70239 260.224 16
      vertex 12.8 256.5 16
    endloop
  endfacet
  facet normal -0 0 1
    outer loop
      vertex 7.25 258.443 16
      vertex 12.8 256.5 16
      vertex 9.70239 260.224 16
    endloop
  endfacet
  facet normal 0 0 1
    outer loop
      vertex 12.8 256.5 16
      vertex 7.25 258.443 16
      vertex 10 250.084 16
    endloop
  endfacet
  facet normal -0 0 1
    outer loop
      vertex 4.48075 257.21 16
      vertex 10 250.084 16
      vertex 7.25 258.443 16
    endloop
  endfacet
  facet normal 0 0 1
    outer loop
      vertex 10 250.084 16
      vertex 5 248.403 16
      vertex 10 220 16
    endloop
  endfacet
  facet normal -0 0 1
    outer loop
      vertex 5 221.597 16
      vertex 10 220 16
      vertex 5 248.403 16
    endloop
  endfacet
  facet normal -0 0 1
    outer loop
      vertex 3.7314 220.8 16
      vertex 10 220 16
      vertex 5 221.597 16
    endloop
  endfacet
  facet normal -0 0 1
    outer loop
      vertex 1.91368 220.164 16
      vertex 10 220 16
      vertex 3.7314 220.8 16
    endloop
  endfacet
  facet normal 0 0 1
    outer loop
      vertex 10 220 16
      vertex 1.91368 220.164 16
      vertex 0.458076 220 16
    endloop
  endfacet
  facet normal 0 0 1
    outer loop
      vertex 21 255.5 16
      vertex 15.35 257.972 16
      vertex 17.35 255.972 16
    endloop
  endfacet
  facet normal 0 0 1
    outer loop
      vertex 21 255.5 16
      vertex 13.2464 265.102 16
      vertex 15.35 257.972 16
    endloop
  endfacet
  facet normal -0 0 1
    outer loop
      vertex 11.7307 262.477 16
      vertex 15.35 257.972 16
      vertex 13.2464 265.102 16
    endloop
  endfacet
  facet normal 0 0 1
    outer loop
      vertex 15.35 257.972 16
      vertex 11.7307 262.477 16
      vertex 13.65 257.972 16
    endloop
  endfacet
  facet normal -0 0 1
    outer loop
      vertex 9.70239 260.224 16
      vertex 13.65 257.972 16
      vertex 11.7307 262.477 16
    endloop
  endfacet
  facet normal 1 -0 0
    outer loop
      vertex 10 220 16
      vertex 10 250.084 10
      vertex 10 250.084 16
    endloop
  endfacet
  facet normal 1 0 0
    outer loop
      vertex 10 250.084 10
      vertex 10 220 16
      vertex 10 220 10
    endloop
  endfacet
  facet normal 0 0 -1
    outer loop
      vertex -15.35 284.028 10
      vertex -11.7307 279.523 10
      vertex -13.2464 276.898 10
    endloop
  endfacet
  facet normal 0 0 -1
    outer loop
      vertex -11.7307 279.523 10
      vertex -13.65 284.028 10
      vertex -12.8 285.5 10
    endloop
  endfacet
  facet normal 0 0 -1
    outer loop
      vertex -21 286.5 10
      vertex -13.2464 276.898 10
      vertex -14.1831 274.015 10
    endloop
  endfacet
  facet normal 0 0 -1
    outer loop
      vertex -21 286.5 10
      vertex -14.1831 274.015 10
      vertex -14.5 271 10
    endloop
  endfacet
  facet normal 0 0 -1
    outer loop
      vertex -11.7307 279.523 10
      vertex -15.35 284.028 10
      vertex -13.65 284.028 10
    endloop
  endfacet
  facet normal -0 0 -1
    outer loop
      vertex -14.1831 267.985 10
      vertex -21 255.5 10
      vertex -14.5 271 10
    endloop
  endfacet
  facet normal 0 0 -1
    outer loop
      vertex -21 255.5 10
      vertex -15.35 257.972 10
      vertex -17.35 255.972 10
    endloop
  endfacet
  facet normal 0 0 -1
    outer loop
      vertex -21 286.5 10
      vertex -14.5 271 10
      vertex -21 255.5 10
    endloop
  endfacet
  facet normal 0 0 -1
    outer loop
      vertex -21 255.5 10
      vertex -17.35 255.972 10
      vertex -18.2 254.5 10
    endloop
  endfacet
  facet normal 0 0 -1
    outer loop
      vertex -13.2464 276.898 10
      vertex -21 286.5 10
      vertex -15.35 284.028 10
    endloop
  endfacet
  facet normal 0 0 -1
    outer loop
      vertex 1.99172 229.671 10
      vertex 2.6 241 10
      vertex 2.6 228 10
    endloop
  endfacet
  facet normal 0 0 -1
    outer loop
      vertex 1.99172 229.671 10
      vertex 1.99172 239.329 10
      vertex 2.6 241 10
    endloop
  endfacet
  facet normal 0 0 -1
    outer loop
      vertex 0.451485 230.561 10
      vertex 1.99172 239.329 10
      vertex 1.99172 229.671 10
    endloop
  endfacet
  facet normal 0 0 -1
    outer loop
      vertex 0.451485 230.561 10
      vertex 0.451485 238.439 10
      vertex 1.99172 239.329 10
    endloop
  endfacet
  facet normal 0 0 -1
    outer loop
      vertex -1.3 230.252 10
      vertex 0.451485 238.439 10
      vertex 0.451485 230.561 10
    endloop
  endfacet
  facet normal 0 0 -1
    outer loop
      vertex -1.3 230.252 10
      vertex -1.3 238.748 10
      vertex 0.451485 238.439 10
    endloop
  endfacet
  facet normal 0 0 -1
    outer loop
      vertex -2.4432 228.889 10
      vertex -1.3 238.748 10
      vertex -1.3 230.252 10
    endloop
  endfacet
  facet normal -0 0 -1
    outer loop
      vertex -1.3 238.748 10
      vertex -2.4432 228.889 10
      vertex -2.4432 240.111 10
    endloop
  endfacet
  facet normal 0 0 -1
    outer loop
      vertex 2.6 241 10
      vertex 10 250.084 10
      vertex 10 220 10
    endloop
  endfacet
  facet normal 0 0 -1
    outer loop
      vertex 1.99172 242.671 10
      vertex 10 250.084 10
      vertex 2.6 241 10
    endloop
  endfacet
  facet normal 0 0 -1
    outer loop
      vertex 10 250.084 10
      vertex 7.25 258.443 10
      vertex 9.70239 260.224 10
    endloop
  endfacet
  facet normal 0 0 -1
    outer loop
      vertex 2.6 241 10
      vertex 10 220 10
      vertex 2.6 228 10
    endloop
  endfacet
  facet normal 0 0 -1
    outer loop
      vertex 10 220 10
      vertex 1.99172 226.329 10
      vertex 2.6 228 10
    endloop
  endfacet
  facet normal 0 0 -1
    outer loop
      vertex 10 220 10
      vertex 0.451485 225.439 10
      vertex 1.99172 226.329 10
    endloop
  endfacet
  facet normal 0 0 -1
    outer loop
      vertex -10 220 10
      vertex 0.451485 225.439 10
      vertex 10 220 10
    endloop
  endfacet
  facet normal 0 0 -1
    outer loop
      vertex -10 220 10
      vertex -2.4432 228.889 10
      vertex -2.4432 227.111 10
    endloop
  endfacet
  facet normal -0 0 -1
    outer loop
      vertex -2.4432 228.889 10
      vertex -10 220 10
      vertex -2.4432 240.111 10
    endloop
  endfacet
  facet normal 0 0 -1
    outer loop
      vertex -10 250.084 10
      vertex -2.4432 240.111 10
      vertex -10 220 10
    endloop
  endfacet
  facet normal 0 0 -1
    outer loop
      vertex -2.4432 241.889 10
      vertex -10 250.084 10
      vertex -4.48075 257.21 10
    endloop
  endfacet
  facet normal -0 0 -1
    outer loop
      vertex -4.48075 257.21 10
      vertex -10 250.084 10
      vertex -7.25 258.443 10
    endloop
  endfacet
  facet normal -0 0 -1
    outer loop
      vertex 0.451485 225.439 10
      vertex -10 220 10
      vertex -1.3 225.748 10
    endloop
  endfacet
  facet normal 0 0 -1
    outer loop
      vertex -10 220 10
      vertex -2.4432 227.111 10
      vertex -1.3 225.748 10
    endloop
  endfacet
  facet normal 0 0 -1
    outer loop
      vertex -2.4432 240.111 10
      vertex -10 250.084 10
      vertex -2.4432 241.889 10
    endloop
  endfacet
  facet normal 0 0 -1
    outer loop
      vertex -12.8 256.5 10
      vertex -7.25 258.443 10
      vertex -10 250.084 10
    endloop
  endfacet
  facet normal -0 0 -1
    outer loop
      vertex -7.25 258.443 10
      vertex -12.8 256.5 10
      vertex -9.70239 260.224 10
    endloop
  endfacet
  facet normal 0 0 -1
    outer loop
      vertex -13.65 257.972 10
      vertex -9.70239 260.224 10
      vertex -12.8 256.5 10
    endloop
  endfacet
  facet normal 0 0 -1
    outer loop
      vertex -10 250.084 10
      vertex -13.65 255.028 10
      vertex -12.8 256.5 10
    endloop
  endfacet
  facet normal 0 0 -1
    outer loop
      vertex -10 250.084 10
      vertex -15.65 253.028 10
      vertex -13.65 255.028 10
    endloop
  endfacet
  facet normal 0 0 -1
    outer loop
      vertex -16.4551 250.084 10
      vertex -15.65 253.028 10
      vertex -10 250.084 10
    endloop
  endfacet
  facet normal 0 0 -1
    outer loop
      vertex -16.4551 250.084 10
      vertex -17.35 253.028 10
      vertex -15.65 253.028 10
    endloop
  endfacet
  facet normal 0 0 -1
    outer loop
      vertex -18.25 250.737 10
      vertex -17.35 253.028 10
      vertex -16.4551 250.084 10
    endloop
  endfacet
  facet normal -0 0 -1
    outer loop
      vertex -17.35 253.028 10
      vertex -19.7132 251.965 10
      vertex -18.2 254.5 10
    endloop
  endfacet
  facet normal 0 0 -1
    outer loop
      vertex -19.7132 251.965 10
      vertex -17.35 253.028 10
      vertex -18.25 250.737 10
    endloop
  endfacet
  facet normal 0 0 -1
    outer loop
      vertex 0.451485 243.561 10
      vertex 10 250.084 10
      vertex 1.99172 242.671 10
    endloop
  endfacet
  facet normal 0 0 -1
    outer loop
      vertex 10 250.084 10
      vertex 4.48075 257.21 10
      vertex 7.25 258.443 10
    endloop
  endfacet
  facet normal 0 -0 -1
    outer loop
      vertex 1.51566 256.579 10
      vertex 10 250.084 10
      vertex 0.451485 243.561 10
    endloop
  endfacet
  facet normal 0 0 -1
    outer loop
      vertex 10 250.084 10
      vertex 1.51566 256.579 10
      vertex 4.48075 257.21 10
    endloop
  endfacet
  facet normal 0 0 -1
    outer loop
      vertex -1.51566 256.579 10
      vertex 0.451485 243.561 10
      vertex -1.3 243.252 10
    endloop
  endfacet
  facet normal 0 0 -1
    outer loop
      vertex 0.451485 243.561 10
      vertex -1.51566 256.579 10
      vertex 1.51566 256.579 10
    endloop
  endfacet
  facet normal 0 0 -1
    outer loop
      vertex -4.48075 257.21 10
      vertex -1.3 243.252 10
      vertex -2.4432 241.889 10
    endloop
  endfacet
  facet normal 0 0 -1
    outer loop
      vertex -1.3 243.252 10
      vertex -4.48075 257.21 10
      vertex -1.51566 256.579 10
    endloop
  endfacet
  facet normal -0 0 -1
    outer loop
      vertex -9.70239 260.224 10
      vertex -13.65 257.972 10
      vertex -11.7307 262.477 10
    endloop
  endfacet
  facet normal 0 0 -1
    outer loop
      vertex -15.35 257.972 10
      vertex -11.7307 262.477 10
      vertex -13.65 257.972 10
    endloop
  endfacet
  facet normal -0 0 -1
    outer loop
      vertex -11.7307 262.477 10
      vertex -15.35 257.972 10
      vertex -13.2464 265.102 10
    endloop
  endfacet
  facet normal 0 0 -1
    outer loop
      vertex -21 255.5 10
      vertex -13.2464 265.102 10
      vertex -15.35 257.972 10
    endloop
  endfacet
  facet normal -0 0 -1
    outer loop
      vertex -13.2464 265.102 10
      vertex -21 255.5 10
      vertex -14.1831 267.985 10
    endloop
  endfacet
  facet normal 0 0 -1
    outer loop
      vertex 21 255.5 10
      vertex 14.5 271 10
      vertex 21 286.5 10
    endloop
  endfacet
  facet normal 0 0 -1
    outer loop
      vertex 14.1831 274.015 10
      vertex 21 286.5 10
      vertex 14.5 271 10
    endloop
  endfacet
  facet normal 0 0 -1
    outer loop
      vertex 14.1831 267.985 10
      vertex 17.35 255.972 10
      vertex 15.35 257.972 10
    endloop
  endfacet
  facet normal -0 0 -1
    outer loop
      vertex 21 286.5 10
      vertex 17.35 286.028 10
      vertex 18.2 287.5 10
    endloop
  endfacet
  facet normal 0 0 -1
    outer loop
      vertex 13.2464 276.898 10
      vertex 21 286.5 10
      vertex 14.1831 274.015 10
    endloop
  endfacet
  facet normal 0 0 -1
    outer loop
      vertex 17.35 255.972 10
      vertex 14.1831 267.985 10
      vertex 14.5 271 10
    endloop
  endfacet
  facet normal 0 0 -1
    outer loop
      vertex 11.7307 262.477 10
      vertex 15.35 257.972 10
      vertex 13.65 257.972 10
    endloop
  endfacet
  facet normal 0 0 -1
    outer loop
      vertex 15.35 257.972 10
      vertex 13.2464 265.102 10
      vertex 14.1831 267.985 10
    endloop
  endfacet
  facet normal 0 0 -1
    outer loop
      vertex 9.70239 260.224 10
      vertex 13.65 257.972 10
      vertex 12.8 256.5 10
    endloop
  endfacet
  facet normal 0 0 -1
    outer loop
      vertex 15.35 257.972 10
      vertex 11.7307 262.477 10
      vertex 13.2464 265.102 10
    endloop
  endfacet
  facet normal 0 0 -1
    outer loop
      vertex 18.2 254.5 10
      vertex 21 255.5 10
      vertex 20.6683 253.619 10
    endloop
  endfacet
  facet normal 0 0 -1
    outer loop
      vertex 17.35 255.972 10
      vertex 21 255.5 10
      vertex 18.2 254.5 10
    endloop
  endfacet
  facet normal 0 0 -1
    outer loop
      vertex 18.2 254.5 10
      vertex 20.6683 253.619 10
      vertex 19.7132 251.965 10
    endloop
  endfacet
  facet normal 0 0 -1
    outer loop
      vertex 14.5 271 10
      vertex 21 255.5 10
      vertex 17.35 255.972 10
    endloop
  endfacet
  facet normal 0 0 -1
    outer loop
      vertex 17.35 253.028 10
      vertex 19.7132 251.965 10
      vertex 18.25 250.737 10
    endloop
  endfacet
  facet normal 0 0 -1
    outer loop
      vertex 21 286.5 10
      vertex 18.2 287.5 10
      vertex 20.6683 288.381 10
    endloop
  endfacet
  facet normal -0 0 -1
    outer loop
      vertex 20.6683 288.381 10
      vertex 18.2 287.5 10
      vertex 19.7132 290.035 10
    endloop
  endfacet
  facet normal 0 0 -1
    outer loop
      vertex 19.7132 251.965 10
      vertex 17.35 253.028 10
      vertex 18.2 254.5 10
    endloop
  endfacet
  facet normal 0 0 -1
    outer loop
      vertex 16.4551 250.084 10
      vertex 17.35 253.028 10
      vertex 18.25 250.737 10
    endloop
  endfacet
  facet normal 0 0 -1
    outer loop
      vertex 16.4551 250.084 10
      vertex 15.65 253.028 10
      vertex 17.35 253.028 10
    endloop
  endfacet
  facet normal 0 0 -1
    outer loop
      vertex 10 250.084 10
      vertex 15.65 253.028 10
      vertex 16.4551 250.084 10
    endloop
  endfacet
  facet normal -0 0 -1
    outer loop
      vertex 15.65 253.028 10
      vertex 10 250.084 10
      vertex 13.65 255.028 10
    endloop
  endfacet
  facet normal -0 0 -1
    outer loop
      vertex 13.65 255.028 10
      vertex 10 250.084 10
      vertex 12.8 256.5 10
    endloop
  endfacet
  facet normal 0 0 -1
    outer loop
      vertex 9.70239 260.224 10
      vertex 12.8 256.5 10
      vertex 10 250.084 10
    endloop
  endfacet
  facet normal 0 0 -1
    outer loop
      vertex 13.65 257.972 10
      vertex 9.70239 260.224 10
      vertex 11.7307 262.477 10
    endloop
  endfacet
  facet normal 0 0 -1
    outer loop
      vertex 17.35 288.972 10
      vertex 19.7132 290.035 10
      vertex 18.2 287.5 10
    endloop
  endfacet
  facet normal -0 0 -1
    outer loop
      vertex 19.7132 290.035 10
      vertex 17.35 288.972 10
      vertex 18.25 291.263 10
    endloop
  endfacet
  facet normal 0 0 -1
    outer loop
      vertex 17.35 288.972 10
      vertex 16.4551 291.916 10
      vertex 18.25 291.263 10
    endloop
  endfacet
  facet normal 0 0 -1
    outer loop
      vertex 15.65 288.972 10
      vertex 16.4551 291.916 10
      vertex 17.35 288.972 10
    endloop
  endfacet
  facet normal 0 0 -1
    outer loop
      vertex 13.65 286.972 10
      vertex 16.4551 291.916 10
      vertex 15.65 288.972 10
    endloop
  endfacet
  facet normal 0 0 -1
    outer loop
      vertex 7.25 283.557 10
      vertex 13.65 286.972 10
      vertex 12.8 285.5 10
    endloop
  endfacet
  facet normal -0 0 -1
    outer loop
      vertex 13.65 284.028 10
      vertex 9.70239 281.776 10
      vertex 12.8 285.5 10
    endloop
  endfacet
  facet normal 0 0 -1
    outer loop
      vertex 7.25 283.557 10
      vertex 12.8 285.5 10
      vertex 9.70239 281.776 10
    endloop
  endfacet
  facet normal 0 0 -1
    outer loop
      vertex 13.65 286.972 10
      vertex 7.25 283.557 10
      vertex 4.48075 284.79 10
    endloop
  endfacet
  facet normal -0 0 -1
    outer loop
      vertex 13.65 286.972 10
      vertex 4.48075 284.79 10
      vertex 16.4551 291.916 10
    endloop
  endfacet
  facet normal 0 0 -1
    outer loop
      vertex 1.51566 285.421 10
      vertex 16.4551 291.916 10
      vertex 4.48075 284.79 10
    endloop
  endfacet
  facet normal 0 0 -1
    outer loop
      vertex -1.51566 285.421 10
      vertex 16.4551 291.916 10
      vertex 1.51566 285.421 10
    endloop
  endfacet
  facet normal 0 0 -1
    outer loop
      vertex -16.4551 291.916 10
      vertex -1.51566 285.421 10
      vertex -4.48075 284.79 10
    endloop
  endfacet
  facet normal 0 0 -1
    outer loop
      vertex -12.8 285.5 10
      vertex -9.70239 281.776 10
      vertex -11.7307 279.523 10
    endloop
  endfacet
  facet normal 0 0 -1
    outer loop
      vertex -12.8 285.5 10
      vertex -7.25 283.557 10
      vertex -9.70239 281.776 10
    endloop
  endfacet
  facet normal 0 0 -1
    outer loop
      vertex -13.65 286.972 10
      vertex -7.25 283.557 10
      vertex -12.8 285.5 10
    endloop
  endfacet
  facet normal 0 0 -1
    outer loop
      vertex -7.25 283.557 10
      vertex -13.65 286.972 10
      vertex -4.48075 284.79 10
    endloop
  endfacet
  facet normal 0 0 -1
    outer loop
      vertex -16.4551 291.916 10
      vertex -4.48075 284.79 10
      vertex -13.65 286.972 10
    endloop
  endfacet
  facet normal 0 0 -1
    outer loop
      vertex -16.4551 291.916 10
      vertex -13.65 286.972 10
      vertex -15.65 288.972 10
    endloop
  endfacet
  facet normal 0 0 -1
    outer loop
      vertex -1.51566 285.421 10
      vertex -16.4551 291.916 10
      vertex 16.4551 291.916 10
    endloop
  endfacet
  facet normal 0 0 -1
    outer loop
      vertex -17.35 288.972 10
      vertex -16.4551 291.916 10
      vertex -15.65 288.972 10
    endloop
  endfacet
  facet normal 0 0 -1
    outer loop
      vertex -19.7132 290.035 10
      vertex -17.35 288.972 10
      vertex -18.2 287.5 10
    endloop
  endfacet
  facet normal 0 0 -1
    outer loop
      vertex -17.35 288.972 10
      vertex -18.25 291.263 10
      vertex -16.4551 291.916 10
    endloop
  endfacet
  facet normal 0 0 -1
    outer loop
      vertex -15.35 284.028 10
      vertex -21 286.5 10
      vertex -17.35 286.028 10
    endloop
  endfacet
  facet normal 0 0 -1
    outer loop
      vertex -20.6683 253.619 10
      vertex -18.2 254.5 10
      vertex -19.7132 251.965 10
    endloop
  endfacet
  facet normal 0 0 -1
    outer loop
      vertex -17.35 286.028 10
      vertex -21 286.5 10
      vertex -18.2 287.5 10
    endloop
  endfacet
  facet normal -0 0 -1
    outer loop
      vertex -18.2 254.5 10
      vertex -20.6683 253.619 10
      vertex -21 255.5 10
    endloop
  endfacet
  facet normal 0 -0 -1
    outer loop
      vertex -20.6683 288.381 10
      vertex -18.2 287.5 10
      vertex -21 286.5 10
    endloop
  endfacet
  facet normal 0 0 -1
    outer loop
      vertex -17.35 288.972 10
      vertex -19.7132 290.035 10
      vertex -18.25 291.263 10
    endloop
  endfacet
  facet normal 0 0 -1
    outer loop
      vertex -18.2 287.5 10
      vertex -20.6683 288.381 10
      vertex -19.7132 290.035 10
    endloop
  endfacet
  facet normal 0 0 -1
    outer loop
      vertex 21 286.5 10
      vertex 15.35 284.028 10
      vertex 17.35 286.028 10
    endloop
  endfacet
  facet normal 0 0 -1
    outer loop
      vertex 21 286.5 10
      vertex 13.2464 276.898 10
      vertex 15.35 284.028 10
    endloop
  endfacet
  facet normal 0 0 -1
    outer loop
      vertex 11.7307 279.523 10
      vertex 15.35 284.028 10
      vertex 13.2464 276.898 10
    endloop
  endfacet
  facet normal -0 0 -1
    outer loop
      vertex 15.35 284.028 10
      vertex 11.7307 279.523 10
      vertex 13.65 284.028 10
    endloop
  endfacet
  facet normal 0 0 -1
    outer loop
      vertex 9.70239 281.776 10
      vertex 13.65 284.028 10
      vertex 11.7307 279.523 10
    endloop
  endfacet
  facet normal 0 -1 0
    outer loop
      vertex -10 220 16
      vertex -0.458076 220 14.75
      vertex -0.458076 220 16
    endloop
  endfacet
  facet normal 0 -1 -0
    outer loop
      vertex -0.458076 220 14.75
      vertex -10 220 10
      vertex 0.458076 220 14.75
    endloop
  endfacet
  facet normal 0 -1 0
    outer loop
      vertex -10 220 10
      vertex -0.458076 220 14.75
      vertex -10 220 16
    endloop
  endfacet
  facet normal 0 -1 0
    outer loop
      vertex 0.458076 220 14.75
      vertex 10 220 16
      vertex 0.458076 220 16
    endloop
  endfacet
  facet normal 0 -1 0
    outer loop
      vertex 10 220 10
      vertex 0.458076 220 14.75
      vertex -10 220 10
    endloop
  endfacet
  facet normal 0 -1 0
    outer loop
      vertex 0.458076 220 14.75
      vertex 10 220 10
      vertex 10 220 16
    endloop
  endfacet
  facet normal -0.984805 -0.173663 0
    outer loop
      vertex -20.6683 253.619 10
      vertex -21 255.5 16
      vertex -21 255.5 10
    endloop
  endfacet
  facet normal -0.984805 -0.173663 0
    outer loop
      vertex -21 255.5 16
      vertex -20.6683 253.619 10
      vertex -20.6683 253.619 16
    endloop
  endfacet
  facet normal 0.984805 0.173663 0
    outer loop
      vertex 21 286.5 16
      vertex 20.6683 288.381 10
      vertex 20.6683 288.381 16
    endloop
  endfacet
  facet normal 0.984805 0.173663 0
    outer loop
      vertex 20.6683 288.381 10
      vertex 21 286.5 16
      vertex 21 286.5 10
    endloop
  endfacet
  facet normal 0.642858 -0.765985 0
    outer loop
      vertex 18.25 250.737 10
      vertex 19.7132 251.965 16
      vertex 18.25 250.737 16
    endloop
  endfacet
  facet normal 0.642858 -0.765985 0
    outer loop
      vertex 19.7132 251.965 16
      vertex 18.25 250.737 10
      vertex 19.7132 251.965 10
    endloop
  endfacet
  facet normal -0.642858 0.765985 0
    outer loop
      vertex -18.25 291.263 10
      vertex -19.7132 290.035 16
      vertex -18.25 291.263 16
    endloop
  endfacet
  facet normal -0.642858 0.765985 0
    outer loop
      vertex -19.7132 290.035 16
      vertex -18.25 291.263 10
      vertex -19.7132 290.035 10
    endloop
  endfacet
  facet normal 0 -1 0
    outer loop
      vertex -16.4551 250.084 10
      vertex -10 250.084 16
      vertex -16.4551 250.084 16
    endloop
  endfacet
  facet normal 0 -1 -0
    outer loop
      vertex -10 250.084 16
      vertex -16.4551 250.084 10
      vertex -10 250.084 10
    endloop
  endfacet
  facet normal 0 -1 0
    outer loop
      vertex 10 250.084 10
      vertex 16.4551 250.084 16
      vertex 10 250.084 16
    endloop
  endfacet
  facet normal 0 -1 -0
    outer loop
      vertex 16.4551 250.084 16
      vertex 10 250.084 10
      vertex 16.4551 250.084 10
    endloop
  endfacet
  facet normal 1 -0 0
    outer loop
      vertex 21 255.5 16
      vertex 21 286.5 10
      vertex 21 286.5 16
    endloop
  endfacet
  facet normal 1 0 0
    outer loop
      vertex 21 286.5 10
      vertex 21 255.5 16
      vertex 21 255.5 10
    endloop
  endfacet
  facet normal 0.865989 -0.500064 0
    outer loop
      vertex 19.7132 251.965 16
      vertex 20.6683 253.619 10
      vertex 20.6683 253.619 16
    endloop
  endfacet
  facet normal 0.865989 -0.500064 0
    outer loop
      vertex 20.6683 253.619 10
      vertex 19.7132 251.965 16
      vertex 19.7132 251.965 10
    endloop
  endfacet
  facet normal -1 0 0
    outer loop
      vertex -21 255.5 10
      vertex -21 286.5 16
      vertex -21 286.5 10
    endloop
  endfacet
  facet normal -1 -0 0
    outer loop
      vertex -21 286.5 16
      vertex -21 255.5 10
      vertex -21 255.5 16
    endloop
  endfacet
  facet normal -0.865989 -0.500064 0
    outer loop
      vertex -19.7132 251.965 10
      vertex -20.6683 253.619 16
      vertex -20.6683 253.619 10
    endloop
  endfacet
  facet normal -0.865989 -0.500064 0
    outer loop
      vertex -20.6683 253.619 16
      vertex -19.7132 251.965 10
      vertex -19.7132 251.965 16
    endloop
  endfacet
  facet normal -0.341886 -0.939741 0
    outer loop
      vertex -18.25 250.737 10
      vertex -16.4551 250.084 16
      vertex -18.25 250.737 16
    endloop
  endfacet
  facet normal -0.341886 -0.939741 -0
    outer loop
      vertex -16.4551 250.084 16
      vertex -18.25 250.737 10
      vertex -16.4551 250.084 10
    endloop
  endfacet
  facet normal 0.341886 -0.939741 0
    outer loop
      vertex 16.4551 250.084 10
      vertex 18.25 250.737 16
      vertex 16.4551 250.084 16
    endloop
  endfacet
  facet normal 0.341886 -0.939741 0
    outer loop
      vertex 18.25 250.737 16
      vertex 16.4551 250.084 10
      vertex 18.25 250.737 10
    endloop
  endfacet
  facet normal 0.984805 -0.173663 0
    outer loop
      vertex 20.6683 253.619 16
      vertex 21 255.5 10
      vertex 21 255.5 16
    endloop
  endfacet
  facet normal 0.984805 -0.173663 0
    outer loop
      vertex 21 255.5 10
      vertex 20.6683 253.619 16
      vertex 20.6683 253.619 10
    endloop
  endfacet
  facet normal -0.984805 0.173663 0
    outer loop
      vertex -21 286.5 10
      vertex -20.6683 288.381 16
      vertex -20.6683 288.381 10
    endloop
  endfacet
  facet normal -0.984805 0.173663 0
    outer loop
      vertex -20.6683 288.381 16
      vertex -21 286.5 10
      vertex -21 286.5 16
    endloop
  endfacet
  facet normal -0.865989 0.500064 0
    outer loop
      vertex -20.6683 288.381 10
      vertex -19.7132 290.035 16
      vertex -19.7132 290.035 10
    endloop
  endfacet
  facet normal -0.865989 0.500064 0
    outer loop
      vertex -19.7132 290.035 16
      vertex -20.6683 288.381 10
      vertex -20.6683 288.381 16
    endloop
  endfacet
  facet normal -0.642858 -0.765985 0
    outer loop
      vertex -19.7132 251.965 10
      vertex -18.25 250.737 16
      vertex -19.7132 251.965 16
    endloop
  endfacet
  facet normal -0.642858 -0.765985 -0
    outer loop
      vertex -18.25 250.737 16
      vertex -19.7132 251.965 10
      vertex -18.25 250.737 10
    endloop
  endfacet
  facet normal 0 1 -0
    outer loop
      vertex 16.4551 291.916 10
      vertex -16.4551 291.916 16
      vertex 16.4551 291.916 16
    endloop
  endfacet
  facet normal 0 1 0
    outer loop
      vertex -16.4551 291.916 16
      vertex 16.4551 291.916 10
      vertex -16.4551 291.916 10
    endloop
  endfacet
  facet normal 0.341886 0.939741 -0
    outer loop
      vertex 18.25 291.263 10
      vertex 16.4551 291.916 16
      vertex 18.25 291.263 16
    endloop
  endfacet
  facet normal 0.341886 0.939741 0
    outer loop
      vertex 16.4551 291.916 16
      vertex 18.25 291.263 10
      vertex 16.4551 291.916 10
    endloop
  endfacet
  facet normal -0.341886 0.939741 0
    outer loop
      vertex -16.4551 291.916 10
      vertex -18.25 291.263 16
      vertex -16.4551 291.916 16
    endloop
  endfacet
  facet normal -0.341886 0.939741 0
    outer loop
      vertex -18.25 291.263 16
      vertex -16.4551 291.916 10
      vertex -18.25 291.263 10
    endloop
  endfacet
  facet normal 0.642858 0.765985 -0
    outer loop
      vertex 19.7132 290.035 10
      vertex 18.25 291.263 16
      vertex 19.7132 290.035 16
    endloop
  endfacet
  facet normal 0.642858 0.765985 0
    outer loop
      vertex 18.25 291.263 16
      vertex 19.7132 290.035 10
      vertex 18.25 291.263 10
    endloop
  endfacet
  facet normal 0.865989 0.500064 0
    outer loop
      vertex 20.6683 288.381 16
      vertex 19.7132 290.035 10
      vertex 19.7132 290.035 16
    endloop
  endfacet
  facet normal 0.865989 0.500064 0
    outer loop
      vertex 19.7132 290.035 10
      vertex 20.6683 288.381 16
      vertex 20.6683 288.381 10
    endloop
  endfacet
  facet normal 0.86599 -0.500062 0
    outer loop
      vertex 12.8 285.5 16
      vertex 13.65 286.972 10
      vertex 13.65 286.972 16
    endloop
  endfacet
  facet normal 0.86599 -0.500062 0
    outer loop
      vertex 13.65 286.972 10
      vertex 12.8 285.5 16
      vertex 12.8 285.5 10
    endloop
  endfacet
  facet normal 0 1 -0
    outer loop
      vertex 15.35 284.028 10
      vertex 13.65 284.028 16
      vertex 15.35 284.028 16
    endloop
  endfacet
  facet normal 0 1 0
    outer loop
      vertex 13.65 284.028 16
      vertex 15.35 284.028 10
      vertex 13.65 284.028 10
    endloop
  endfacet
  facet normal 0.86599 0.500062 0
    outer loop
      vertex 13.65 284.028 16
      vertex 12.8 285.5 10
      vertex 12.8 285.5 16
    endloop
  endfacet
  facet normal 0.86599 0.500062 0
    outer loop
      vertex 12.8 285.5 10
      vertex 13.65 284.028 16
      vertex 13.65 284.028 10
    endloop
  endfacet
  facet normal -0.707107 0.707107 0
    outer loop
      vertex 15.35 284.028 10
      vertex 17.35 286.028 16
      vertex 17.35 286.028 10
    endloop
  endfacet
  facet normal -0.707107 0.707107 0
    outer loop
      vertex 17.35 286.028 16
      vertex 15.35 284.028 10
      vertex 15.35 284.028 16
    endloop
  endfacet
  facet normal 0.707107 -0.707107 0
    outer loop
      vertex 13.65 286.972 16
      vertex 15.65 288.972 10
      vertex 15.65 288.972 16
    endloop
  endfacet
  facet normal 0.707107 -0.707107 0
    outer loop
      vertex 15.65 288.972 10
      vertex 13.65 286.972 16
      vertex 13.65 286.972 10
    endloop
  endfacet
  facet normal -0.86599 0.500062 0
    outer loop
      vertex 17.35 286.028 10
      vertex 18.2 287.5 16
      vertex 18.2 287.5 10
    endloop
  endfacet
  facet normal -0.86599 0.500062 0
    outer loop
      vertex 18.2 287.5 16
      vertex 17.35 286.028 10
      vertex 17.35 286.028 16
    endloop
  endfacet
  facet normal 0 -1 0
    outer loop
      vertex 15.65 288.972 10
      vertex 17.35 288.972 16
      vertex 15.65 288.972 16
    endloop
  endfacet
  facet normal 0 -1 -0
    outer loop
      vertex 17.35 288.972 16
      vertex 15.65 288.972 10
      vertex 17.35 288.972 10
    endloop
  endfacet
  facet normal -0.86599 -0.500062 0
    outer loop
      vertex 18.2 287.5 10
      vertex 17.35 288.972 16
      vertex 17.35 288.972 10
    endloop
  endfacet
  facet normal -0.86599 -0.500062 0
    outer loop
      vertex 17.35 288.972 16
      vertex 18.2 287.5 10
      vertex 18.2 287.5 16
    endloop
  endfacet
  facet normal 0.86599 -0.500062 0
    outer loop
      vertex 12.8 256.5 16
      vertex 13.65 257.972 10
      vertex 13.65 257.972 16
    endloop
  endfacet
  facet normal 0.86599 -0.500062 0
    outer loop
      vertex 13.65 257.972 10
      vertex 12.8 256.5 16
      vertex 12.8 256.5 10
    endloop
  endfacet
  facet normal 0.707107 0.707107 0
    outer loop
      vertex 15.65 253.028 16
      vertex 13.65 255.028 10
      vertex 13.65 255.028 16
    endloop
  endfacet
  facet normal 0.707107 0.707107 0
    outer loop
      vertex 13.65 255.028 10
      vertex 15.65 253.028 16
      vertex 15.65 253.028 10
    endloop
  endfacet
  facet normal 0 -1 0
    outer loop
      vertex 13.65 257.972 10
      vertex 15.35 257.972 16
      vertex 13.65 257.972 16
    endloop
  endfacet
  facet normal 0 -1 -0
    outer loop
      vertex 15.35 257.972 16
      vertex 13.65 257.972 10
      vertex 15.35 257.972 10
    endloop
  endfacet
  facet normal 0 1 -0
    outer loop
      vertex 17.35 253.028 10
      vertex 15.65 253.028 16
      vertex 17.35 253.028 16
    endloop
  endfacet
  facet normal 0 1 0
    outer loop
      vertex 15.65 253.028 16
      vertex 17.35 253.028 10
      vertex 15.65 253.028 10
    endloop
  endfacet
  facet normal 0.86599 0.500062 0
    outer loop
      vertex 13.65 255.028 16
      vertex 12.8 256.5 10
      vertex 12.8 256.5 16
    endloop
  endfacet
  facet normal 0.86599 0.500062 0
    outer loop
      vertex 12.8 256.5 10
      vertex 13.65 255.028 16
      vertex 13.65 255.028 10
    endloop
  endfacet
  facet normal -0.86599 0.500062 0
    outer loop
      vertex 17.35 253.028 10
      vertex 18.2 254.5 16
      vertex 18.2 254.5 10
    endloop
  endfacet
  facet normal -0.86599 0.500062 0
    outer loop
      vertex 18.2 254.5 16
      vertex 17.35 253.028 10
      vertex 17.35 253.028 16
    endloop
  endfacet
  facet normal -0.707107 -0.707107 0
    outer loop
      vertex 15.35 257.972 10
      vertex 17.35 255.972 16
      vertex 15.35 257.972 16
    endloop
  endfacet
  facet normal -0.707107 -0.707107 -0
    outer loop
      vertex 17.35 255.972 16
      vertex 15.35 257.972 10
      vertex 17.35 255.972 10
    endloop
  endfacet
  facet normal -0.86599 -0.500062 0
    outer loop
      vertex 18.2 254.5 10
      vertex 17.35 255.972 16
      vertex 17.35 255.972 10
    endloop
  endfacet
  facet normal -0.86599 -0.500062 0
    outer loop
      vertex 17.35 255.972 16
      vertex 18.2 254.5 10
      vertex 18.2 254.5 16
    endloop
  endfacet
  facet normal -0.86599 0.500062 0
    outer loop
      vertex -13.65 284.028 10
      vertex -12.8 285.5 16
      vertex -12.8 285.5 10
    endloop
  endfacet
  facet normal -0.86599 0.500062 0
    outer loop
      vertex -12.8 285.5 16
      vertex -13.65 284.028 10
      vertex -13.65 284.028 16
    endloop
  endfacet
  facet normal -0.707107 -0.707107 0
    outer loop
      vertex -13.65 286.972 10
      vertex -15.65 288.972 16
      vertex -15.65 288.972 10
    endloop
  endfacet
  facet normal -0.707107 -0.707107 0
    outer loop
      vertex -15.65 288.972 16
      vertex -13.65 286.972 10
      vertex -13.65 286.972 16
    endloop
  endfacet
  facet normal 0 1 -0
    outer loop
      vertex -13.65 284.028 10
      vertex -15.35 284.028 16
      vertex -13.65 284.028 16
    endloop
  endfacet
  facet normal 0 1 0
    outer loop
      vertex -15.35 284.028 16
      vertex -13.65 284.028 10
      vertex -15.35 284.028 10
    endloop
  endfacet
  facet normal 0.86599 -0.500062 0
    outer loop
      vertex -18.2 287.5 16
      vertex -17.35 288.972 10
      vertex -17.35 288.972 16
    endloop
  endfacet
  facet normal 0.86599 -0.500062 0
    outer loop
      vertex -17.35 288.972 10
      vertex -18.2 287.5 16
      vertex -18.2 287.5 10
    endloop
  endfacet
  facet normal 0 -1 0
    outer loop
      vertex -17.35 288.972 10
      vertex -15.65 288.972 16
      vertex -17.35 288.972 16
    endloop
  endfacet
  facet normal 0 -1 -0
    outer loop
      vertex -15.65 288.972 16
      vertex -17.35 288.972 10
      vertex -15.65 288.972 10
    endloop
  endfacet
  facet normal -0.86599 -0.500062 0
    outer loop
      vertex -12.8 285.5 10
      vertex -13.65 286.972 16
      vertex -13.65 286.972 10
    endloop
  endfacet
  facet normal -0.86599 -0.500062 0
    outer loop
      vertex -13.65 286.972 16
      vertex -12.8 285.5 10
      vertex -12.8 285.5 16
    endloop
  endfacet
  facet normal 0.707107 0.707107 0
    outer loop
      vertex -15.35 284.028 16
      vertex -17.35 286.028 10
      vertex -17.35 286.028 16
    endloop
  endfacet
  facet normal 0.707107 0.707107 0
    outer loop
      vertex -17.35 286.028 10
      vertex -15.35 284.028 16
      vertex -15.35 284.028 10
    endloop
  endfacet
  facet normal 0.86599 0.500062 0
    outer loop
      vertex -17.35 286.028 16
      vertex -18.2 287.5 10
      vertex -18.2 287.5 16
    endloop
  endfacet
  facet normal 0.86599 0.500062 0
    outer loop
      vertex -18.2 287.5 10
      vertex -17.35 286.028 16
      vertex -17.35 286.028 10
    endloop
  endfacet
  facet normal -0.86599 -0.500062 0
    outer loop
      vertex -12.8 256.5 10
      vertex -13.65 257.972 16
      vertex -13.65 257.972 10
    endloop
  endfacet
  facet normal -0.86599 -0.500062 0
    outer loop
      vertex -13.65 257.972 16
      vertex -12.8 256.5 10
      vertex -12.8 256.5 16
    endloop
  endfacet
  facet normal 0.86599 -0.500062 0
    outer loop
      vertex -18.2 254.5 16
      vertex -17.35 255.972 10
      vertex -17.35 255.972 16
    endloop
  endfacet
  facet normal 0.86599 -0.500062 0
    outer loop
      vertex -17.35 255.972 10
      vertex -18.2 254.5 16
      vertex -18.2 254.5 10
    endloop
  endfacet
  facet normal 0 -1 0
    outer loop
      vertex -15.35 257.972 10
      vertex -13.65 257.972 16
      vertex -15.35 257.972 16
    endloop
  endfacet
  facet normal 0 -1 -0
    outer loop
      vertex -13.65 257.972 16
      vertex -15.35 257.972 10
      vertex -13.65 257.972 10
    endloop
  endfacet
  facet normal 0.707107 -0.707107 0
    outer loop
      vertex -17.35 255.972 10
      vertex -15.35 257.972 16
      vertex -17.35 255.972 16
    endloop
  endfacet
  facet normal 0.707107 -0.707107 0
    outer loop
      vertex -15.35 257.972 16
      vertex -17.35 255.972 10
      vertex -15.35 257.972 10
    endloop
  endfacet
  facet normal 0.86599 0.500062 0
    outer loop
      vertex -17.35 253.028 16
      vertex -18.2 254.5 10
      vertex -18.2 254.5 16
    endloop
  endfacet
  facet normal 0.86599 0.500062 0
    outer loop
      vertex -18.2 254.5 10
      vertex -17.35 253.028 16
      vertex -17.35 253.028 10
    endloop
  endfacet
  facet normal -0.707107 0.707107 0
    outer loop
      vertex -15.65 253.028 10
      vertex -13.65 255.028 16
      vertex -13.65 255.028 10
    endloop
  endfacet
  facet normal -0.707107 0.707107 0
    outer loop
      vertex -13.65 255.028 16
      vertex -15.65 253.028 10
      vertex -15.65 253.028 16
    endloop
  endfacet
  facet normal 0 1 -0
    outer loop
      vertex -15.65 253.028 10
      vertex -17.35 253.028 16
      vertex -15.65 253.028 16
    endloop
  endfacet
  facet normal 0 1 0
    outer loop
      vertex -17.35 253.028 16
      vertex -15.65 253.028 10
      vertex -17.35 253.028 10
    endloop
  endfacet
  facet normal -0.86599 0.500062 0
    outer loop
      vertex -13.65 255.028 10
      vertex -12.8 256.5 16
      vertex -12.8 256.5 10
    endloop
  endfacet
  facet normal -0.86599 0.500062 0
    outer loop
      vertex -12.8 256.5 16
      vertex -13.65 255.028 10
      vertex -13.65 255.028 16
    endloop
  endfacet
  facet normal -0.994522 -0.104532 0
    outer loop
      vertex 14.5 271 10
      vertex 14.1831 274.015 16
      vertex 14.1831 274.015 10
    endloop
  endfacet
  facet normal -0.994522 -0.104532 0
    outer loop
      vertex 14.1831 274.015 16
      vertex 14.5 271 10
      vertex 14.5 271 16
    endloop
  endfacet
  facet normal 0.994522 -0.104532 0
    outer loop
      vertex -14.5 271 16
      vertex -14.1831 274.015 10
      vertex -14.1831 274.015 16
    endloop
  endfacet
  facet normal 0.994522 -0.104532 0
    outer loop
      vertex -14.1831 274.015 10
      vertex -14.5 271 16
      vertex -14.5 271 10
    endloop
  endfacet
  facet normal 0 -1 0
    outer loop
      vertex -1.51566 285.421 10
      vertex 1.51566 285.421 16
      vertex -1.51566 285.421 16
    endloop
  endfacet
  facet normal 0 -1 -0
    outer loop
      vertex 1.51566 285.421 16
      vertex -1.51566 285.421 10
      vertex 1.51566 285.421 10
    endloop
  endfacet
  facet normal 0 1 -0
    outer loop
      vertex 1.51566 256.579 10
      vertex -1.51566 256.579 16
      vertex 1.51566 256.579 16
    endloop
  endfacet
  facet normal 0 1 0
    outer loop
      vertex -1.51566 256.579 16
      vertex 1.51566 256.579 10
      vertex -1.51566 256.579 10
    endloop
  endfacet
  facet normal -0.58762 -0.809137 0
    outer loop
      vertex 7.25 283.557 10
      vertex 9.70239 281.776 16
      vertex 7.25 283.557 16
    endloop
  endfacet
  facet normal -0.58762 -0.809137 -0
    outer loop
      vertex 9.70239 281.776 16
      vertex 7.25 283.557 10
      vertex 9.70239 281.776 10
    endloop
  endfacet
  facet normal -0.406751 -0.913539 0
    outer loop
      vertex 4.48075 284.79 10
      vertex 7.25 283.557 16
      vertex 4.48075 284.79 16
    endloop
  endfacet
  facet normal -0.406751 -0.913539 -0
    outer loop
      vertex 7.25 283.557 16
      vertex 4.48075 284.79 10
      vertex 7.25 283.557 10
    endloop
  endfacet
  facet normal 0.58762 -0.809137 0
    outer loop
      vertex -9.70239 281.776 10
      vertex -7.25 283.557 16
      vertex -9.70239 281.776 16
    endloop
  endfacet
  facet normal 0.58762 -0.809137 0
    outer loop
      vertex -7.25 283.557 16
      vertex -9.70239 281.776 10
      vertex -7.25 283.557 10
    endloop
  endfacet
  facet normal 0.208149 -0.978097 0
    outer loop
      vertex -4.48075 284.79 10
      vertex -1.51566 285.421 16
      vertex -4.48075 284.79 16
    endloop
  endfacet
  facet normal 0.208149 -0.978097 0
    outer loop
      vertex -1.51566 285.421 16
      vertex -4.48075 284.79 10
      vertex -1.51566 285.421 10
    endloop
  endfacet
  facet normal -0.866003 -0.500038 0
    outer loop
      vertex 13.2464 276.898 10
      vertex 11.7307 279.523 16
      vertex 11.7307 279.523 10
    endloop
  endfacet
  facet normal -0.866003 -0.500038 0
    outer loop
      vertex 11.7307 279.523 16
      vertex 13.2464 276.898 10
      vertex 13.2464 276.898 16
    endloop
  endfacet
  facet normal -0.951061 -0.309004 0
    outer loop
      vertex 14.1831 274.015 10
      vertex 13.2464 276.898 16
      vertex 13.2464 276.898 10
    endloop
  endfacet
  facet normal -0.951061 -0.309004 0
    outer loop
      vertex 13.2464 276.898 16
      vertex 14.1831 274.015 10
      vertex 14.1831 274.015 16
    endloop
  endfacet
  facet normal -0.743194 -0.669076 0
    outer loop
      vertex 11.7307 279.523 10
      vertex 9.70239 281.776 16
      vertex 9.70239 281.776 10
    endloop
  endfacet
  facet normal -0.743194 -0.669076 0
    outer loop
      vertex 9.70239 281.776 16
      vertex 11.7307 279.523 10
      vertex 11.7307 279.523 16
    endloop
  endfacet
  facet normal -0.208149 -0.978097 0
    outer loop
      vertex 1.51566 285.421 10
      vertex 4.48075 284.79 16
      vertex 1.51566 285.421 16
    endloop
  endfacet
  facet normal -0.208149 -0.978097 -0
    outer loop
      vertex 4.48075 284.79 16
      vertex 1.51566 285.421 10
      vertex 4.48075 284.79 10
    endloop
  endfacet
  facet normal 0.866003 -0.500038 0
    outer loop
      vertex -13.2464 276.898 16
      vertex -11.7307 279.523 10
      vertex -11.7307 279.523 16
    endloop
  endfacet
  facet normal 0.866003 -0.500038 0
    outer loop
      vertex -11.7307 279.523 10
      vertex -13.2464 276.898 16
      vertex -13.2464 276.898 10
    endloop
  endfacet
  facet normal 0.743194 -0.669076 0
    outer loop
      vertex -11.7307 279.523 16
      vertex -9.70239 281.776 10
      vertex -9.70239 281.776 16
    endloop
  endfacet
  facet normal 0.743194 -0.669076 0
    outer loop
      vertex -9.70239 281.776 10
      vertex -11.7307 279.523 16
      vertex -11.7307 279.523 10
    endloop
  endfacet
  facet normal 0.951061 -0.309004 0
    outer loop
      vertex -14.1831 274.015 16
      vertex -13.2464 276.898 10
      vertex -13.2464 276.898 16
    endloop
  endfacet
  facet normal 0.951061 -0.309004 0
    outer loop
      vertex -13.2464 276.898 10
      vertex -14.1831 274.015 16
      vertex -14.1831 274.015 10
    endloop
  endfacet
  facet normal 0.406751 -0.913539 0
    outer loop
      vertex -7.25 283.557 10
      vertex -4.48075 284.79 16
      vertex -7.25 283.557 16
    endloop
  endfacet
  facet normal 0.406751 -0.913539 0
    outer loop
      vertex -4.48075 284.79 16
      vertex -7.25 283.557 10
      vertex -4.48075 284.79 10
    endloop
  endfacet
  facet normal -0.994522 0.104532 0
    outer loop
      vertex 14.1831 267.985 10
      vertex 14.5 271 16
      vertex 14.5 271 10
    endloop
  endfacet
  facet normal -0.994522 0.104532 0
    outer loop
      vertex 14.5 271 16
      vertex 14.1831 267.985 10
      vertex 14.1831 267.985 16
    endloop
  endfacet
  facet normal -0.208149 0.978097 0
    outer loop
      vertex 4.48075 257.21 10
      vertex 1.51566 256.579 16
      vertex 4.48075 257.21 16
    endloop
  endfacet
  facet normal -0.208149 0.978097 0
    outer loop
      vertex 1.51566 256.579 16
      vertex 4.48075 257.21 10
      vertex 1.51566 256.579 10
    endloop
  endfacet
  facet normal -0.866003 0.500038 0
    outer loop
      vertex 11.7307 262.477 10
      vertex 13.2464 265.102 16
      vertex 13.2464 265.102 10
    endloop
  endfacet
  facet normal -0.866003 0.500038 0
    outer loop
      vertex 13.2464 265.102 16
      vertex 11.7307 262.477 10
      vertex 11.7307 262.477 16
    endloop
  endfacet
  facet normal 0.58762 0.809137 -0
    outer loop
      vertex -7.25 258.443 10
      vertex -9.70239 260.224 16
      vertex -7.25 258.443 16
    endloop
  endfacet
  facet normal 0.58762 0.809137 0
    outer loop
      vertex -9.70239 260.224 16
      vertex -7.25 258.443 10
      vertex -9.70239 260.224 10
    endloop
  endfacet
  facet normal 0.866003 0.500038 0
    outer loop
      vertex -11.7307 262.477 16
      vertex -13.2464 265.102 10
      vertex -13.2464 265.102 16
    endloop
  endfacet
  facet normal 0.866003 0.500038 0
    outer loop
      vertex -13.2464 265.102 10
      vertex -11.7307 262.477 16
      vertex -11.7307 262.477 10
    endloop
  endfacet
  facet normal 0.743194 0.669076 0
    outer loop
      vertex -9.70239 260.224 16
      vertex -11.7307 262.477 10
      vertex -11.7307 262.477 16
    endloop
  endfacet
  facet normal 0.743194 0.669076 0
    outer loop
      vertex -11.7307 262.477 10
      vertex -9.70239 260.224 16
      vertex -9.70239 260.224 10
    endloop
  endfacet
  facet normal 0.994522 0.104532 0
    outer loop
      vertex -14.1831 267.985 16
      vertex -14.5 271 10
      vertex -14.5 271 16
    endloop
  endfacet
  facet normal 0.994522 0.104532 0
    outer loop
      vertex -14.5 271 10
      vertex -14.1831 267.985 16
      vertex -14.1831 267.985 10
    endloop
  endfacet
  facet normal -0.58762 0.809137 0
    outer loop
      vertex 9.70239 260.224 10
      vertex 7.25 258.443 16
      vertex 9.70239 260.224 16
    endloop
  endfacet
  facet normal -0.58762 0.809137 0
    outer loop
      vertex 7.25 258.443 16
      vertex 9.70239 260.224 10
      vertex 7.25 258.443 10
    endloop
  endfacet
  facet normal -0.406751 0.913539 0
    outer loop
      vertex 7.25 258.443 10
      vertex 4.48075 257.21 16
      vertex 7.25 258.443 16
    endloop
  endfacet
  facet normal -0.406751 0.913539 0
    outer loop
      vertex 4.48075 257.21 16
      vertex 7.25 258.443 10
      vertex 4.48075 257.21 10
    endloop
  endfacet
  facet normal -0.951061 0.309004 0
    outer loop
      vertex 13.2464 265.102 10
      vertex 14.1831 267.985 16
      vertex 14.1831 267.985 10
    endloop
  endfacet
  facet normal -0.951061 0.309004 0
    outer loop
      vertex 14.1831 267.985 16
      vertex 13.2464 265.102 10
      vertex 13.2464 265.102 16
    endloop
  endfacet
  facet normal 0.208149 0.978097 -0
    outer loop
      vertex -1.51566 256.579 10
      vertex -4.48075 257.21 16
      vertex -1.51566 256.579 16
    endloop
  endfacet
  facet normal 0.208149 0.978097 0
    outer loop
      vertex -4.48075 257.21 16
      vertex -1.51566 256.579 10
      vertex -4.48075 257.21 10
    endloop
  endfacet
  facet normal 0.951061 0.309004 0
    outer loop
      vertex -13.2464 265.102 16
      vertex -14.1831 267.985 10
      vertex -14.1831 267.985 16
    endloop
  endfacet
  facet normal 0.951061 0.309004 0
    outer loop
      vertex -14.1831 267.985 10
      vertex -13.2464 265.102 16
      vertex -13.2464 265.102 10
    endloop
  endfacet
  facet normal -0.743194 0.669076 0
    outer loop
      vertex 9.70239 260.224 10
      vertex 11.7307 262.477 16
      vertex 11.7307 262.477 10
    endloop
  endfacet
  facet normal -0.743194 0.669076 0
    outer loop
      vertex 11.7307 262.477 16
      vertex 9.70239 260.224 10
      vertex 9.70239 260.224 16
    endloop
  endfacet
  facet normal 0.406751 0.913539 -0
    outer loop
      vertex -4.48075 257.21 10
      vertex -7.25 258.443 16
      vertex -4.48075 257.21 16
    endloop
  endfacet
  facet normal 0.406751 0.913539 0
    outer loop
      vertex -7.25 258.443 16
      vertex -4.48075 257.21 10
      vertex -7.25 258.443 10
    endloop
  endfacet
  facet normal -0.939677 -0.342063 0
    outer loop
      vertex 2.6 241 10
      vertex 1.99172 242.671 17.25
      vertex 1.99172 242.671 10
    endloop
  endfacet
  facet normal -0.939677 -0.342063 0
    outer loop
      vertex 1.99172 242.671 17.25
      vertex 2.6 241 10
      vertex 2.6 241 17.25
    endloop
  endfacet
  facet normal 1 -0 0
    outer loop
      vertex -2.4432 240.111 17.25
      vertex -2.4432 241.889 10
      vertex -2.4432 241.889 17.25
    endloop
  endfacet
  facet normal 1 0 0
    outer loop
      vertex -2.4432 241.889 10
      vertex -2.4432 240.111 17.25
      vertex -2.4432 240.111 10
    endloop
  endfacet
  facet normal -0.500314 0.865844 0
    outer loop
      vertex 1.99172 239.329 10
      vertex 0.451485 238.439 17.25
      vertex 1.99172 239.329 17.25
    endloop
  endfacet
  facet normal -0.500314 0.865844 0
    outer loop
      vertex 0.451485 238.439 17.25
      vertex 1.99172 239.329 10
      vertex 0.451485 238.439 10
    endloop
  endfacet
  facet normal 0.173739 -0.984792 0
    outer loop
      vertex -1.3 243.252 10
      vertex 0.451485 243.561 17.25
      vertex -1.3 243.252 17.25
    endloop
  endfacet
  facet normal 0.173739 -0.984792 0
    outer loop
      vertex 0.451485 243.561 17.25
      vertex -1.3 243.252 10
      vertex 0.451485 243.561 10
    endloop
  endfacet
  facet normal -0.500314 -0.865844 0
    outer loop
      vertex 0.451485 243.561 10
      vertex 1.99172 242.671 17.25
      vertex 0.451485 243.561 17.25
    endloop
  endfacet
  facet normal -0.500314 -0.865844 -0
    outer loop
      vertex 1.99172 242.671 17.25
      vertex 0.451485 243.561 10
      vertex 1.99172 242.671 10
    endloop
  endfacet
  facet normal 0.766181 -0.642625 0
    outer loop
      vertex -2.4432 241.889 17.25
      vertex -1.3 243.252 10
      vertex -1.3 243.252 17.25
    endloop
  endfacet
  facet normal 0.766181 -0.642625 0
    outer loop
      vertex -1.3 243.252 10
      vertex -2.4432 241.889 17.25
      vertex -2.4432 241.889 10
    endloop
  endfacet
  facet normal -0.939677 0.342063 0
    outer loop
      vertex 1.99172 239.329 10
      vertex 2.6 241 17.25
      vertex 2.6 241 10
    endloop
  endfacet
  facet normal -0.939677 0.342063 0
    outer loop
      vertex 2.6 241 17.25
      vertex 1.99172 239.329 10
      vertex 1.99172 239.329 17.25
    endloop
  endfacet
  facet normal 0.173739 0.984792 -0
    outer loop
      vertex 0.451485 238.439 10
      vertex -1.3 238.748 17.25
      vertex 0.451485 238.439 17.25
    endloop
  endfacet
  facet normal 0.173739 0.984792 0
    outer loop
      vertex -1.3 238.748 17.25
      vertex 0.451485 238.439 10
      vertex -1.3 238.748 10
    endloop
  endfacet
  facet normal 0.766181 0.642625 0
    outer loop
      vertex -1.3 238.748 17.25
      vertex -2.4432 240.111 10
      vertex -2.4432 240.111 17.25
    endloop
  endfacet
  facet normal 0.766181 0.642625 0
    outer loop
      vertex -2.4432 240.111 10
      vertex -1.3 238.748 17.25
      vertex -1.3 238.748 10
    endloop
  endfacet
  facet normal -0.939677 -0.342063 0
    outer loop
      vertex 2.6 228 10
      vertex 1.99172 229.671 17.25
      vertex 1.99172 229.671 10
    endloop
  endfacet
  facet normal -0.939677 -0.342063 0
    outer loop
      vertex 1.99172 229.671 17.25
      vertex 2.6 228 10
      vertex 2.6 228 17.25
    endloop
  endfacet
  facet normal 1 -0 0
    outer loop
      vertex -2.4432 227.111 17.25
      vertex -2.4432 228.889 10
      vertex -2.4432 228.889 17.25
    endloop
  endfacet
  facet normal 1 0 0
    outer loop
      vertex -2.4432 228.889 10
      vertex -2.4432 227.111 17.25
      vertex -2.4432 227.111 10
    endloop
  endfacet
  facet normal -0.500314 0.865844 0
    outer loop
      vertex 1.99172 226.329 10
      vertex 0.451485 225.439 17.25
      vertex 1.99172 226.329 17.25
    endloop
  endfacet
  facet normal -0.500314 0.865844 0
    outer loop
      vertex 0.451485 225.439 17.25
      vertex 1.99172 226.329 10
      vertex 0.451485 225.439 10
    endloop
  endfacet
  facet normal 0.173739 -0.984792 0
    outer loop
      vertex -1.3 230.252 10
      vertex 0.451485 230.561 17.25
      vertex -1.3 230.252 17.25
    endloop
  endfacet
  facet normal 0.173739 -0.984792 0
    outer loop
      vertex 0.451485 230.561 17.25
      vertex -1.3 230.252 10
      vertex 0.451485 230.561 10
    endloop
  endfacet
  facet normal -0.500314 -0.865844 0
    outer loop
      vertex 0.451485 230.561 10
      vertex 1.99172 229.671 17.25
      vertex 0.451485 230.561 17.25
    endloop
  endfacet
  facet normal -0.500314 -0.865844 -0
    outer loop
      vertex 1.99172 229.671 17.25
      vertex 0.451485 230.561 10
      vertex 1.99172 229.671 10
    endloop
  endfacet
  facet normal 0.766181 -0.642625 0
    outer loop
      vertex -2.4432 228.889 17.25
      vertex -1.3 230.252 10
      vertex -1.3 230.252 17.25
    endloop
  endfacet
  facet normal 0.766181 -0.642625 0
    outer loop
      vertex -1.3 230.252 10
      vertex -2.4432 228.889 17.25
      vertex -2.4432 228.889 10
    endloop
  endfacet
  facet normal -0.939677 0.342063 0
    outer loop
      vertex 1.99172 226.329 10
      vertex 2.6 228 17.25
      vertex 2.6 228 10
    endloop
  endfacet
  facet normal -0.939677 0.342063 0
    outer loop
      vertex 2.6 228 17.25
      vertex 1.99172 226.329 10
      vertex 1.99172 226.329 17.25
    endloop
  endfacet
  facet normal 0.173739 0.984792 -0
    outer loop
      vertex 0.451485 225.439 10
      vertex -1.3 225.748 17.25
      vertex 0.451485 225.439 17.25
    endloop
  endfacet
  facet normal 0.173739 0.984792 0
    outer loop
      vertex -1.3 225.748 17.25
      vertex 0.451485 225.439 10
      vertex -1.3 225.748 10
    endloop
  endfacet
  facet normal 0.766181 0.642625 0
    outer loop
      vertex -1.3 225.748 17.25
      vertex -2.4432 227.111 10
      vertex -2.4432 227.111 17.25
    endloop
  endfacet
  facet normal 0.766181 0.642625 0
    outer loop
      vertex -2.4432 227.111 10
      vertex -1.3 225.748 17.25
      vertex -1.3 225.748 10
    endloop
  endfacet
endsolid OpenSCAD_Model
